<svg enable-background="new 0 0 24 24" height="512" viewBox="0 0 24 24" width="512" xmlns="http://www.w3.org/2000/svg"><g fill="#f44336"><ellipse cx="2.5" cy="5.069" rx="2" ry="2.004"/><ellipse cx="2.5" cy="13.087" rx="2" ry="2.004"/><ellipse cx="2.5" cy="21.104" rx="2" ry="2.004"/></g><path d="m2.5 7.573c-1.379 0-2.5-1.123-2.5-2.504s1.121-2.504 2.5-2.504 2.5 1.123 2.5 2.504-1.121 2.504-2.5 2.504zm0-3.508c-.552 0-1 .45-1 1.004s.448 1.004 1 1.004 1-.45 1-1.004-.448-1.004-1-1.004z"/><path d="m2.5 15.591c-1.379 0-2.5-1.123-2.5-2.504s1.121-2.504 2.5-2.504 2.5 1.123 2.5 2.504-1.121 2.504-2.5 2.504zm0-3.508c-.552 0-1 .45-1 1.004s.448 1.004 1 1.004 1-.45 1-1.004-.448-1.004-1-1.004z"/><path d="m2.5 23.608c-1.379 0-2.5-1.123-2.5-2.504s1.121-2.504 2.5-2.504 2.5 1.124 2.5 2.504-1.121 2.504-2.5 2.504zm0-3.507c-.552 0-1 .45-1 1.004s.448 1.004 1 1.004 1-.45 1-1.004-.448-1.004-1-1.004z"/><path d="m23.25 5.819h-15.5c-.414 0-.75-.336-.75-.75s.336-.75.75-.75h15.5c.414 0 .75.336.75.75s-.336.75-.75.75z"/><path d="m23.25 13.837h-15.5c-.414 0-.75-.336-.75-.75s.336-.75.75-.75h15.5c.414 0 .75.336.75.75s-.336.75-.75.75z"/><path d="m23.25 21.854h-15.5c-.414 0-.75-.336-.75-.75s.336-.75.75-.75h15.5c.414 0 .75.336.75.75s-.336.75-.75.75z"/></svg>