<svg enable-background="new 0 0 24 24" height="512" viewBox="0 0 24 24" width="512" xmlns="http://www.w3.org/2000/svg"><path d="m3 1.002h18c1.657 0 3 1.346 3 3.007v3.508h-24v-3.508c0-1.661 1.343-3.007 3-3.007z" fill="#4caf50"/><path d="m1.187 8.268h21.42v13.495h-21.42z" fill="#81c784"/><path d="m21.25 23.049h-18.5c-1.517 0-2.75-1.233-2.75-2.75v-16.545c0-1.517 1.233-2.75 2.75-2.75h18.5c1.517 0 2.75 1.233 2.75 2.75v16.545c0 1.516-1.233 2.75-2.75 2.75zm-18.5-20.545c-.689 0-1.25.561-1.25 1.25v16.545c0 .689.561 1.25 1.25 1.25h18.5c.689 0 1.25-.561 1.25-1.25v-16.545c0-.689-.561-1.25-1.25-1.25z"/><path d="m23.25 8.517h-22.5c-.414 0-.75-.336-.75-.75s.336-.75.75-.75h22.5c.414 0 .75.336.75.75s-.336.75-.75.75z"/><path d="m23.25 13.528h-22.5c-.414 0-.75-.336-.75-.75s.336-.75.75-.75h22.5c.414 0 .75.336.75.75s-.336.75-.75.75z"/><path d="m23.25 18.539h-22.5c-.414 0-.75-.336-.75-.75s.336-.75.75-.75h22.5c.414 0 .75.336.75.75s-.336.75-.75.75z"/><path d="m6.25 23.049c-.414 0-.75-.336-.75-.75v-14.532c0-.414.336-.75.75-.75s.75.336.75.75v14.532c0 .414-.336.75-.75.75z"/><path d="m12 23.049c-.414 0-.75-.336-.75-.75v-14.532c0-.414.336-.75.75-.75s.75.336.75.75v14.532c0 .414-.336.75-.75.75z"/><path d="m17.75 23.049c-.414 0-.75-.336-.75-.75v-14.532c0-.414.336-.75.75-.75s.75.336.75.75v14.532c0 .414-.336.75-.75.75z"/></svg>