<svg enable-background="new 0 0 24 24" height="512" viewBox="0 0 24 24" width="512" xmlns="http://www.w3.org/2000/svg"><path d="m18.25 8.48c0-1.501-1.25-2.718-2.793-2.718h-10.664c-1.543.001-2.793 1.217-2.793 2.718v12.353c0 1.501 1.25 2.718 2.793 2.718h10.664c1.543 0 2.793-1.217 2.793-2.718z" fill="#1976d2"/><path d="m23 2.756c0-1.522-1.231-2.756-2.75-2.756h-10.5c-1.519 0-2.75 1.234-2.75 2.756v12.527c0 1.522 1.231 2.756 2.75 2.756h10.5c1.519 0 2.75-1.234 2.75-2.756z" fill="#2196f3"/><path d="m16.25 24.051h-12.5c-1.517 0-2.75-1.236-2.75-2.754v-13.53c0-1.519 1.233-2.754 2.75-2.754h.5c.414 0 .75.336.75.75s-.336.75-.75.75h-.5c-.689 0-1.25.562-1.25 1.254v13.529c0 .692.561 1.254 1.25 1.254h12.5c.689 0 1.25-.562 1.25-1.254v-.501c0-.414.336-.75.75-.75s.75.336.75.75v.501c0 1.519-1.233 2.755-2.75 2.755z"/><path d="m20.25 18.038h-10.5c-1.517 0-2.75-1.236-2.75-2.754v-12.528c0-1.519 1.233-2.754 2.75-2.754h10.5c1.517 0 2.75 1.236 2.75 2.754v12.527c0 1.519-1.233 2.755-2.75 2.755zm-10.5-16.537c-.689 0-1.25.562-1.25 1.254v12.527c0 .692.561 1.254 1.25 1.254h10.5c.689 0 1.25-.562 1.25-1.254v-12.526c0-.692-.561-1.254-1.25-1.254h-10.5z"/></svg>