<svg enable-background="new 0 0 24 24" height="512" viewBox="0 0 24 24" width="512" xmlns="http://www.w3.org/2000/svg"><path d="m21.25 4.009h-13.75c-.208 0-.407.087-.549.239l-6.75 7.266c-.269.289-.269.736 0 1.025l6.75 7.266c.142.153.341.239.549.239h13.75c1.517 0 2.75-1.236 2.75-2.756v-10.523c0-1.52-1.233-2.756-2.75-2.756z" fill="#607d8b"/><path d="m21.25 20.042h-13.75c-.208 0-.407-.087-.55-.24l-6.75-7.265c-.267-.288-.267-.733 0-1.021l6.75-7.266c.143-.153.341-.24.55-.24h13.75c1.517 0 2.75 1.236 2.75 2.754v10.523c0 1.519-1.233 2.755-2.75 2.755zm-13.423-1.5h13.423c.689 0 1.25-.562 1.25-1.254v-10.523c0-.692-.561-1.254-1.25-1.254h-13.423l-6.054 6.516z"/><path d="m18.75 16.284c-.201 0-.402-.081-.55-.24l-6.5-7.015c-.282-.304-.264-.778.04-1.06.304-.281.778-.264 1.06.041l6.5 7.015c.282.304.264.778-.04 1.06-.145.133-.327.199-.51.199z"/><path d="m12.25 16.284c-.183 0-.365-.066-.51-.2-.304-.282-.322-.756-.04-1.06l6.5-7.015c.282-.305.756-.321 1.06-.041.304.282.322.756.04 1.06l-6.5 7.015c-.148.16-.349.241-.55.241z"/></svg>