<svg enable-background="new 0 0 24 24" height="512" viewBox="0 0 24 24" width="512" xmlns="http://www.w3.org/2000/svg"><path d="m23.752 10.91c-1.951-4.716-6.564-7.764-11.752-7.764s-9.801 3.048-11.752 7.764c-.33.798-.33 1.713 0 2.512 1.951 4.717 6.564 7.764 11.752 7.764s9.801-3.047 11.752-7.764c.33-.798.33-1.713 0-2.512zm-11.752 5.265c-2.206 0-4-1.798-4-4.009s1.794-4.009 4-4.009 4 1.798 4 4.009-1.794 4.009-4 4.009z" fill="#2196f3"/><path d="m12 21.184c-5.188 0-9.801-3.047-11.752-7.763-.33-.798-.33-1.713 0-2.51 1.95-4.716 6.564-7.763 11.752-7.763s9.802 3.047 11.752 7.763c.329.797.329 1.711 0 2.509-1.951 4.717-6.564 7.764-11.752 7.764zm0-16.536c-4.58 0-8.648 2.684-10.366 6.836-.179.433-.179.931 0 1.364 1.718 4.153 5.787 6.836 10.366 6.836s8.648-2.683 10.366-6.836c.179-.433.179-.931 0-1.364-1.718-4.152-5.786-6.836-10.366-6.836z"/><path d="m12 16.173c-2.206 0-4-1.798-4-4.007s1.794-4.007 4-4.007 4 1.797 4 4.007-1.794 4.007-4 4.007zm0-6.514c-1.378 0-2.5 1.125-2.5 2.507s1.122 2.507 2.5 2.507 2.5-1.125 2.5-2.507-1.122-2.507-2.5-2.507z"/></svg>