<svg enable-background="new 0 0 24 24" height="512" viewBox="0 0 24 24" width="512" xmlns="http://www.w3.org/2000/svg"><path d="m17.5.14h-15.75c-.965 0-1.75.787-1.75 1.754v1.93c0 .736.286 1.429.806 1.95l5.828 5.836c.232.233.366.556.366.885v7.939c0 .294.17.56.437.683.1.046.207.069.313.069.176 0 .35-.062.488-.181l2.801-2.407c.61-.524.96-1.286.96-2.092v-3.989c0-.338.139-.667.382-.902l6.027-5.828c.534-.516.84-1.24.84-1.983v-1.91c.002-.967-.783-1.754-1.748-1.754z" fill="#4caf50"/><path d="m22.25 12.166h-6.5c-.965 0-1.75.787-1.75 1.754v8.519c0 .967.785 1.754 1.75 1.754h6.5c.965 0 1.75-.787 1.75-1.754v-8.519c0-.967-.785-1.754-1.75-1.754z" fill="#eceff1"/><path d="m7.75 21.184c-.106 0-.213-.022-.313-.068-.266-.123-.437-.389-.437-.682v-7.938c0-.331-.134-.654-.367-.888l-5.827-5.837c-.52-.52-.806-1.211-.806-1.947v-1.93c0-.966.785-1.752 1.75-1.752h15.75c.965 0 1.75.786 1.75 1.752v1.91c0 .743-.306 1.465-.84 1.981l-6.027 5.828c-.243.235-.383.564-.383.903v3.99c0 .805-.35 1.566-.959 2.09l-2.802 2.407c-.139.119-.313.181-.489.181zm-6-19.542c-.138 0-.25.113-.25.252v1.93c0 .331.134.654.367.888l5.827 5.836c.52.52.806 1.212.806 1.948v6.306l1.563-1.343c.278-.239.437-.586.437-.953v-3.99c0-.743.306-1.465.84-1.981l6.027-5.828c.243-.235.383-.564.383-.903v-1.91c0-.139-.112-.252-.25-.252z"/><path d="m22.25 24.19h-6.5c-.965 0-1.75-.785-1.75-1.75v-8.523c0-.965.785-1.75 1.75-1.75h6.5c.965 0 1.75.785 1.75 1.75v8.523c0 .965-.785 1.75-1.75 1.75zm-6.5-10.523c-.138 0-.25.112-.25.25v8.523c0 .138.112.25.25.25h6.5c.138 0 .25-.112.25-.25v-8.523c0-.138-.112-.25-.25-.25z"/><path d="m20.25 17.426h-2.5c-.414 0-.75-.336-.75-.75s.336-.75.75-.75h2.5c.414 0 .75.336.75.75s-.336.75-.75.75z"/><path d="m20.25 20.433h-2.5c-.414 0-.75-.336-.75-.75s.336-.75.75-.75h2.5c.414 0 .75.336.75.75s-.336.75-.75.75z"/></svg>