<svg enable-background="new 0 0 24 24" height="512" viewBox="0 0 24 24" width="512" xmlns="http://www.w3.org/2000/svg"><path d="m23.6 22.157-7.011-6.524c-.477-.425-1.195-.481-1.779.12l-6.327 6.344c-.015.013-.1.086-.113.1-.239.239-.37.552-.37.882 0 .691.561 1.253 1.25 1.253h13.5c.689 0 1.25-.562 1.25-1.253 0-.351-.153-.699-.4-.922z" fill="#b0bec5"/><path d="m22.75.28h-13.5c-.689 0-1.25.561-1.25 1.252 0 .329.131.642.44.942l6.33 6.34c.013.015.087.101.102.115.239.238.551.369.879.369.31 0 .607-.114.85-.331l6.992-6.507c.259-.233.407-.571.407-.928 0-.691-.561-1.252-1.25-1.252z" fill="#b0bec5"/><path d="m22.25 13.056h-12.5c-.414 0-.75-.336-.75-.75s.336-.75.75-.75h12.5c.414 0 .75.336.75.75s-.336.75-.75.75z"/><path d="m22.75 24.331h-13.5c-.689 0-1.25-.561-1.25-1.251 0-.329.131-.641.368-.88.014-.015.1-.088.115-.102l6.326-6.343c.58-.601 1.3-.547 1.78-.121l7.012 6.525c.251.227.399.565.399.921 0 .69-.561 1.251-1.25 1.251zm-.17-1.073.007.007zm-12.713-.427h12.253l-6.358-5.917z"/><path d="m15.75 9.298c-.329 0-.642-.131-.88-.37-.014-.014-.087-.099-.1-.113l-6.33-6.341c-.309-.301-.44-.613-.44-.942 0-.69.561-1.251 1.25-1.251h13.5c.689 0 1.25.561 1.25 1.251 0 .356-.148.694-.408.928l-6.992 6.506c-.243.218-.541.332-.85.332zm.22-1.388h.01zm-6.112-6.129 5.909 5.913 6.353-5.913zm12.721-.427c-.002.001-.004.003-.006.005z"/><path d="m7.25 21.324h-6.5c-.414 0-.75-.336-.75-.75s.336-.75.75-.75h5.75v-5.764c0-.414.336-.75.75-.75s.75.336.75.75v6.514c0 .414-.336.75-.75.75z"/><path d="m7.25 21.324c-.081 0-.164-.013-.245-.041-3.891-1.345-6.505-4.952-6.505-8.977 0-4.024 2.614-7.632 6.505-8.977.39-.135.818.072.954.464.135.392-.073.819-.464.954-3.287 1.136-5.495 4.173-5.495 7.559s2.208 6.423 5.495 7.559c.391.135.599.562.464.954-.107.31-.398.505-.709.505z"/></svg>