<svg enable-background="new 0 0 24 24" height="512" viewBox="0 0 24 24" width="512" xmlns="http://www.w3.org/2000/svg"><path d="m8.56 15.122-6.33-6.34c-.013-.016-.086-.102-.101-.116-.239-.238-.551-.369-.879-.369-.689 0-1.25.562-1.25 1.253v13.529c0 .691.561 1.253 1.25 1.253.355 0 .693-.149.92-.401l6.51-7.027c.206-.231.32-.53.32-.84 0-.329-.131-.641-.44-.942z" fill="#b0bec5"/><path d="m21.81 8.738-6.329 6.345c-.015.013-.099.087-.112.1-.238.24-.369.552-.369.881 0 .31.114.609.33.852l6.492 7.006c.23.257.577.41.928.41.689 0 1.25-.562 1.25-1.253v-13.529c0-1.021-1.267-1.768-2.19-.812z" fill="#b0bec5"/><path d="m12 23.328c-.414 0-.75-.336-.75-.75v-12.527c0-.414.336-.75.75-.75s.75.336.75.75v12.527c0 .414-.336.75-.75.75z"/><path d="m10.25 8.295h-6.5c-.414 0-.75-.336-.75-.75v-6.514c0-.414.336-.75.75-.75s.75.336.75.75v5.764h5.75c.414 0 .75.336.75.75s-.336.75-.75.75z"/><path d="m20.25 8.295c-.312 0-.602-.195-.709-.506-1.134-3.293-4.165-5.507-7.541-5.507s-6.407 2.214-7.541 5.508c-.134.392-.56.6-.953.465-.392-.135-.6-.562-.465-.953 1.342-3.9 4.942-6.52 8.959-6.52s7.617 2.62 8.959 6.519c.135.392-.073.818-.465.953-.081.028-.163.041-.244.041z"/><path d="m1.25 24.331c-.689 0-1.25-.561-1.25-1.251v-13.53c0-.69.561-1.251 1.25-1.251.329 0 .642.131.88.37.014.013.086.097.099.111l6.332 6.344c.308.299.439.611.439.94 0 .309-.113.606-.319.838l-6.511 7.028c-.22.247-.568.401-.92.401zm-.181-1.42c-.003.003-.006.006-.009.009zm.431-12.741v12.276l5.902-6.37zm6.068 6.072h.01z"/><path d="m22.75 24.331c-.352 0-.7-.154-.93-.411l-6.491-7.005c-.216-.245-.329-.542-.329-.851 0-.329.131-.641.368-.879.014-.014.098-.087.112-.1l6.329-6.346c.926-.957 2.191-.209 2.191.811v13.53c0 .69-.561 1.251-1.25 1.251zm.173-1.428.007.007c-.002-.002-.004-.005-.007-.007zm-6.321-6.822 5.898 6.365v-12.284z"/></svg>