<svg enable-background="new 0 0 24 24" height="512" viewBox="0 0 24 24" width="512" xmlns="http://www.w3.org/2000/svg"><path d="m9.953 15.961-2.13-2.135c-.094-.093-.22-.146-.353-.146s-.261.053-.354.147l-4.002 4.373c-.143.143-.185.359-.107.546.077.187.26.309.462.309l3.911-.013c.133 0 .26-.053.354-.147l2.22-2.225c.194-.196.194-.513-.001-.709z" fill="#4caf50"/><path d="m13.515 15.927-5.657-5.67c-.17-.171-.412-.248-.65-.21-.238.039-.443.19-.551.406l-1.414 2.835c-.145.29-.088.639.141.868l4.243 4.252c.144.144.336.22.53.22.114 0 .229-.026.335-.079l2.828-1.417c.216-.108.367-.314.405-.552.039-.239-.039-.482-.21-.653z" fill="#eceff1"/><path d="m22.444 3.617-2.304-2.308c-1.021-1.024-2.67-1.078-3.756-.126l-9.905 8.686c-.156.137-.248.333-.256.541-.007.208.073.41.22.556l6.364 6.378c.141.141.332.22.53.22h.025c.207-.007.402-.1.539-.256l8.667-9.927c.952-1.089.897-2.742-.124-3.764z" fill="#607d8b"/><path d="m21.25 22.046h-18.5c-.414 0-.75-.336-.75-.75s.336-.75.75-.75h18.5c.414 0 .75.336.75.75s-.336.75-.75.75z"/><path d="m13.338 17.563c-.199 0-.39-.079-.531-.22l-6.364-6.378c-.146-.147-.226-.348-.219-.555s.1-.402.256-.539l9.905-8.687c1.086-.952 2.736-.897 3.757.125l2.304 2.309c1.019 1.021 1.074 2.672.125 3.76l-8.667 9.927c-.137.157-.333.25-.54.256-.01.002-.018.002-.026.002zm-5.269-7.091 5.232 5.243 8.138-9.322c.434-.496.408-1.249-.056-1.714l-2.304-2.309c-.462-.464-1.212-.489-1.706-.057z"/><path d="m10.156 18.626c-.194 0-.387-.076-.531-.22l-4.243-4.252c-.228-.228-.284-.576-.14-.865l1.414-2.835c.185-.371.636-.52 1.006-.336.37.185.521.635.336 1.006l-1.173 2.352 3.479 3.487 2.344-1.175c.37-.188.821-.035 1.007.334.186.37.035.821-.335 1.006l-2.828 1.417c-.106.055-.221.081-.336.081z"/><path d="m7.63 19.04h-4.25c-.303 0-.576-.182-.692-.462s-.053-.602.161-.817l3.59-3.608c.292-.294.767-.294 1.061-.003.293.292.295.767.002 1.061l-2.317 2.329h2.134l1.25-1.253c.292-.293.769-.294 1.061-.001.294.292.294.767.002 1.061l-1.47 1.473c-.141.141-.333.22-.532.22z"/></svg>