<svg enable-background="new 0 0 24 24" height="512" viewBox="0 0 24 24" width="512" xmlns="http://www.w3.org/2000/svg"><path d="m16.65.781h-13.3c-1.574 0-2.85 1.262-2.85 2.819v13.154c0 1.557 1.276 2.819 2.85 2.819h13.3c1.574 0 2.85-1.262 2.85-2.819v-13.155c0-1.556-1.276-2.818-2.85-2.818z" fill="#607d8b"/><path d="m11.25 20.322h-8.5c-1.517 0-2.75-1.236-2.75-2.754v-14.532c0-1.519 1.233-2.754 2.75-2.754h14.5c1.517 0 2.75 1.236 2.75 2.754v8.519c0 .414-.336.75-.75.75s-.75-.336-.75-.75v-8.519c0-.692-.561-1.254-1.25-1.254h-14.5c-.689 0-1.25.562-1.25 1.254v14.532c0 .692.561 1.254 1.25 1.254h8.5c.414 0 .75.336.75.75s-.336.75-.75.75z"/><path d="m14.75 22.326c-.414 0-.75-.336-.75-.75v-6.514c0-.414.336-.75.75-.75h6.5c.414 0 .75.336.75.75s-.336.75-.75.75h-5.75v5.764c0 .414-.336.75-.75.75z"/><path d="m23.25 24.331c-.192 0-.385-.073-.531-.22l-8.5-8.519c-.292-.293-.292-.768.002-1.061.292-.292.769-.292 1.061.001l8.5 8.519c.292.293.292.768-.002 1.061-.146.145-.339.219-.53.219z"/></svg>