<svg enable-background="new 0 0 24 24" height="512" viewBox="0 0 24 24" width="512" xmlns="http://www.w3.org/2000/svg"><path d="m23.847 19.471c-.001 0-.001 0 0 0l-8.501-15.534c-.22-.401-.64-.65-1.096-.65-.689 0-1.25.562-1.25 1.253v15.534c0 .691.561 1.253 1.25 1.253h8.5c.689 0 1.25-.562 1.25-1.253 0-.211-.053-.419-.153-.603z" fill="#1976d2"/><path d="m9.75 3.286c-.456 0-.876.249-1.096.65l-8.5 15.534s0 0-.001 0c-.1.185-.153.393-.153.603 0 .691.561 1.253 1.25 1.253h8.5c.689 0 1.25-.562 1.25-1.253v-15.534c0-.691-.561-1.253-1.25-1.253z" fill="#2196f3"/><path d="m22.75 21.324h-8.5c-.689 0-1.25-.561-1.25-1.251v-15.534c0-.69.561-1.251 1.25-1.251.457 0 .877.249 1.097.65l8.5 15.534s0 .001.001.001c.1.184.152.391.152.599 0 .691-.561 1.252-1.25 1.252zm-8.25-1.5h7.829l-7.829-14.308z"/><path d="m9.75 21.324h-8.5c-.689 0-1.25-.561-1.25-1.251 0-.208.053-.416.152-.599.001 0 .001-.001.001-.001l8.5-15.534c.22-.401.64-.65 1.097-.65.689 0 1.25.561 1.25 1.251v15.534c0 .689-.561 1.25-1.25 1.25zm-8.079-1.5h7.829v-14.308z"/></svg>