<svg enable-background="new 0 0 24 24" height="512" viewBox="0 0 24 24" width="512" xmlns="http://www.w3.org/2000/svg"><path d="m18.63 9.625-8.233-8.251c-.293-.294-.768-.294-1.061 0l-7.548 7.563c-1.049 1.051-1.049 2.762 0 3.813l5.489 5.501c.525.526 1.213.789 1.903.789.688 0 1.378-.263 1.902-.788l7.548-7.564c.141-.141.22-.332.22-.531s-.079-.391-.22-.532z" fill="#607d8b"/><path d="m20.126 12.364c-.277-.423-.975-.423-1.252 0-.439.668-1.874 2.938-1.874 4.088 0 1.427 1.121 2.589 2.5 2.589s2.5-1.161 2.5-2.589c0-1.15-1.435-3.42-1.874-4.088z" fill="#2196f3"/><path d="m21.25 22.046h-18.5c-.414 0-.75-.336-.75-.75s.336-.75.75-.75h18.5c.414 0 .75.336.75.75s-.336.75-.75.75z"/><path d="m9.18 19.04c-.719 0-1.395-.28-1.903-.79l-5.489-5.501c-1.048-1.05-1.048-2.76 0-3.81l7.548-7.563c.281-.282.781-.282 1.062 0l8.233 8.251c.292.293.292.767 0 1.06l-7.548 7.564c-.509.508-1.185.789-1.903.789zm-.841-1.85c.449.45 1.232.45 1.682 0l7.02-7.034-7.175-7.189-7.016 7.032c-.465.466-.465 1.225 0 1.691z"/><path d="m19.5 19.04c-1.379 0-2.5-1.161-2.5-2.587 0-1.15 1.434-3.419 1.873-4.087.277-.422.977-.422 1.254 0 .439.668 1.873 2.937 1.873 4.087 0 1.426-1.121 2.587-2.5 2.587zm0-4.832c-.55.952-1 1.899-1 2.245 0 .6.448 1.087 1 1.087s1-.488 1-1.087c0-.346-.45-1.294-1-2.245z"/><path d="m17.48 11.523h-15.72c-.414 0-.75-.336-.75-.75s.336-.75.75-.75h15.72c.414 0 .75.336.75.75s-.335.75-.75.75z"/></svg>