<svg enable-background="new 0 0 24 24" height="512" viewBox="0 0 24 24" width="512" xmlns="http://www.w3.org/2000/svg"><path d="m15 6.153c-3.309 0-6 2.697-6 6.013s2.691 6.013 6 6.013c1.294 0 2.49-.417 3.471-1.117l1.414-1.417c.699-.983 1.115-2.182 1.115-3.479 0-3.316-2.691-6.013-6-6.013z" fill="#42a5f5"/><path d="m15 18.178c-3.309 0-6-2.697-6-6.012 0-3.314 2.691-6.011 6-6.011s6 2.697 6 6.011c0 3.315-2.691 6.012-6 6.012zm0-10.523c-2.481 0-4.5 2.024-4.5 4.511 0 2.488 2.019 4.512 4.5 4.512s4.5-2.024 4.5-4.512c0-2.487-2.019-4.511-4.5-4.511z"/><path d="m23.25 21.184c-.192 0-.384-.073-.531-.22l-4.54-4.55c-.292-.293-.292-.768.001-1.061.293-.292.768-.293 1.061.001l4.54 4.55c.292.293.292.768-.001 1.061-.147.146-.338.219-.53.219z"/><path d="m17.25 2.644h-16.5c-.414 0-.75-.336-.75-.75s.336-.75.75-.75h16.5c.414 0 .75.336.75.75s-.336.75-.75.75z"/><path d="m17.25 23.188h-16.5c-.414 0-.75-.336-.75-.75s.336-.75.75-.75h16.5c.414 0 .75.336.75.75s-.336.75-.75.75z"/><path d="m8.25 7.655h-7.5c-.414 0-.75-.336-.75-.75s.336-.75.75-.75h7.5c.414 0 .75.336.75.75s-.336.75-.75.75z"/><path d="m8.25 18.178h-7.5c-.414 0-.75-.336-.75-.75s.336-.75.75-.75h7.5c.414 0 .75.336.75.75s-.336.75-.75.75z"/><path d="m6.25 12.916h-5.5c-.414 0-.75-.336-.75-.75s.336-.75.75-.75h5.5c.414 0 .75.336.75.75s-.336.75-.75.75z"/></svg>