<svg enable-background="new 0 0 24 24" height="512" viewBox="0 0 24 24" width="512" xmlns="http://www.w3.org/2000/svg"><ellipse cx="8.995" cy="9.154" fill="#2196f3" rx="8.551" ry="8.569"/><path d="m21.25 8.157h-10.5c-1.517 0-2.75 1.236-2.75 2.756v10.523c0 1.52 1.233 2.756 2.75 2.756h10.5c1.517 0 2.75-1.236 2.75-2.756v-10.523c0-1.52-1.233-2.756-2.75-2.756z" fill="#4caf50"/><path d="m21.25 24.19h-10.5c-1.517 0-2.75-1.233-2.75-2.75v-10.531c0-1.516 1.233-2.75 2.75-2.75h10.5c1.517 0 2.75 1.234 2.75 2.75v10.531c0 1.517-1.233 2.75-2.75 2.75zm-10.5-14.531c-.689 0-1.25.561-1.25 1.25v10.531c0 .689.561 1.25 1.25 1.25h10.5c.689 0 1.25-.561 1.25-1.25v-10.531c0-.689-.561-1.25-1.25-1.25z"/><path d="m8.75 18.167c-.007 0-.015 0-.021 0-4.895-.143-8.729-4.1-8.729-9.007 0-4.973 4.037-9.018 9-9.018 4.898 0 8.847 3.842 8.99 8.746.012.414-.314.76-.729.771-.398.021-.76-.315-.771-.728-.119-4.088-3.409-7.29-7.49-7.29-4.136 0-7.5 3.373-7.5 7.518 0 4.091 3.194 7.389 7.271 7.508.414.012.74.357.729.771-.013.408-.346.729-.75.729z"/></svg>