<svg enable-background="new 0 0 24 24" height="512" viewBox="0 0 24 24" width="512" xmlns="http://www.w3.org/2000/svg"><g fill="#42a5f5"><path d="m4 7.074h-3c-.276 0-.5-.224-.5-.5v-3.009c0-.276.224-.5.5-.5h3c.276 0 .5.224.5.5v3.009c0 .276-.224.5-.5.5z"/><path d="m4 15.091h-3c-.276 0-.5-.224-.5-.5v-3.009c0-.276.224-.5.5-.5h3c.276 0 .5.224.5.5v3.009c0 .276-.224.5-.5.5z"/><path d="m4 23.109h-3c-.276 0-.5-.224-.5-.5v-3.009c0-.276.224-.5.5-.5h3c.276 0 .5.224.5.5v3.009c0 .276-.224.5-.5.5z"/></g><path d="m3.25 7.573h-1.5c-.965 0-1.75-.785-1.75-1.75v-1.508c0-.965.785-1.75 1.75-1.75h1.5c.965 0 1.75.786 1.75 1.75v1.508c0 .965-.785 1.75-1.75 1.75zm-1.5-3.508c-.138 0-.25.112-.25.25v1.508c0 .138.112.25.25.25h1.5c.138 0 .25-.112.25-.25v-1.508c0-.138-.112-.25-.25-.25z"/><path d="m3.25 15.591h-1.5c-.965 0-1.75-.785-1.75-1.75v-1.508c0-.965.785-1.75 1.75-1.75h1.5c.965 0 1.75.785 1.75 1.75v1.508c0 .965-.785 1.75-1.75 1.75zm-1.5-3.508c-.138 0-.25.112-.25.25v1.508c0 .138.112.25.25.25h1.5c.138 0 .25-.112.25-.25v-1.508c0-.138-.112-.25-.25-.25z"/><path d="m3.25 23.608h-1.5c-.965 0-1.75-.785-1.75-1.75v-1.508c0-.965.785-1.75 1.75-1.75h1.5c.965 0 1.75.785 1.75 1.75v1.508c0 .965-.785 1.75-1.75 1.75zm-1.5-3.507c-.138 0-.25.112-.25.25v1.508c0 .138.112.25.25.25h1.5c.138 0 .25-.112.25-.25v-1.508c0-.138-.112-.25-.25-.25z"/><path d="m23.25 5.819h-15.5c-.414 0-.75-.336-.75-.75s.336-.75.75-.75h15.5c.414 0 .75.336.75.75s-.336.75-.75.75z"/><path d="m23.25 13.837h-15.5c-.414 0-.75-.336-.75-.75s.336-.75.75-.75h15.5c.414 0 .75.336.75.75s-.336.75-.75.75z"/><path d="m23.25 21.854h-15.5c-.414 0-.75-.336-.75-.75s.336-.75.75-.75h15.5c.414 0 .75.336.75.75s-.336.75-.75.75z"/></svg>