<?xml version="1.0" encoding="iso-8859-1"?>
<!-- Generator: Adobe Illustrator 19.0.0, SVG Export Plug-In . SVG Version: 6.00 Build 0)  -->
<svg version="1.1" id="Capa_1" xmlns="http://www.w3.org/2000/svg" xmlns:xlink="http://www.w3.org/1999/xlink" x="0px" y="0px"
	 viewBox="0 0 512 512" style="enable-background:new 0 0 512 512;" xml:space="preserve">
<circle style="fill:#FF127F;" cx="256" cy="256" r="256"/>
<path style="fill:#B10853;" d="M512,256c0-14.355-1.201-28.428-3.472-42.139L367.873,73.206h-252.35V400.19L225.52,510.186
	C235.516,511.372,245.684,512,256,512C397.385,512,512,397.385,512,256z"/>
<rect x="144.13" y="101.81" style="fill:#00E8F2;" width="252.35" height="326.98"/>
<rect x="270.3" y="101.81" style="fill:#00D9E0;" width="126.18" height="326.98"/>
<rect x="129.82" y="87.51" style="fill:#9CFDFF;" width="252.35" height="326.98"/>
<rect x="256" y="87.51" style="fill:#54FBFF;" width="126.18" height="326.98"/>
<polygon style="fill:#FFFFFF;" points="367.873,73.206 115.523,73.206 115.523,400.19 314.924,400.19 367.873,347.241 "/>
<polygon style="fill:#FFF5CB;" points="367.87,73.21 367.87,347.24 314.92,400.19 241.698,400.19 241.698,73.21 "/>
<polygon style="fill:#00D9E0;" points="314.924,400.19 367.873,347.241 314.924,347.241 "/>
<g>
</g>
<g>
</g>
<g>
</g>
<g>
</g>
<g>
</g>
<g>
</g>
<g>
</g>
<g>
</g>
<g>
</g>
<g>
</g>
<g>
</g>
<g>
</g>
<g>
</g>
<g>
</g>
<g>
</g>
</svg>
