<?xml version="1.0" encoding="iso-8859-1"?>
<!-- Generator: Adobe Illustrator 19.0.0, SVG Export Plug-In . SVG Version: 6.00 Build 0)  -->
<svg version="1.1" id="Capa_1" xmlns="http://www.w3.org/2000/svg" xmlns:xlink="http://www.w3.org/1999/xlink" x="0px" y="0px"
	 viewBox="0 0 512 512" style="enable-background:new 0 0 512 512;" xml:space="preserve">
<circle style="fill:#6D76E7;" cx="256" cy="256" r="256"/>
<path style="fill:#1C2EDE;" d="M512,256c0-6.49-0.246-12.922-0.721-19.29L336.72,62.151l-34.844,34.844l24.073,24.074
	l-42.309,42.309c-13.575-7.694-30.742-7.214-44.049,2.098l-90.794,63.533l47.76,47.76l-91.23,136.651l91.758,91.758
	C216.002,509.632,235.723,512,256,512C397.385,512,512,397.385,512,256z"/>
<polygon style="fill:#FFFFFF;" points="201.005,270.106 105.328,413.418 248.64,317.741 "/>
<polygon style="fill:#FFF5CB;" points="248.642,317.743 241.979,322.19 105.328,413.418 224.822,293.924 "/>
<rect x="290.193" y="147.419" transform="matrix(-0.7071 -0.7071 0.7071 -0.7071 456.2375 544.6139)" style="fill:#FFDB2D;" width="101.439" height="60.796"/>
<rect x="328.445" y="170.401" transform="matrix(-0.7071 0.7071 -0.7071 -0.7071 751.0057 80.4428)" style="fill:#FDC000;" width="60.795" height="50.718"/>
<rect x="294.465" y="114.865" transform="matrix(-0.7071 -0.7071 0.7071 -0.7071 548.7407 506.305)" style="fill:#FFEC97;" width="169.528" height="49.28"/>
<rect x="384.566" y="127.101" transform="matrix(-0.7071 0.7071 -0.7071 -0.7071 818.3908 -0.0277)" style="fill:#FFDF47;" width="49.27" height="84.759"/>
<path style="fill:#FFEC97;" d="M348.635,226.261l-56.15-56.15c-14.172-14.172-36.472-16.127-52.894-4.636l-90.794,63.533
	l140.941,140.941l63.533-90.794C364.762,262.734,362.807,240.433,348.635,226.261z"/>
<path style="fill:#FFDF47;" d="M289.741,369.951l-70.473-70.473l101.295-101.295l28.078,28.078c2.687,2.687,4.939,5.663,6.735,8.835
	c7.698,13.579,7.213,30.75-2.1,44.061L289.741,369.951z"/>
<g>
</g>
<g>
</g>
<g>
</g>
<g>
</g>
<g>
</g>
<g>
</g>
<g>
</g>
<g>
</g>
<g>
</g>
<g>
</g>
<g>
</g>
<g>
</g>
<g>
</g>
<g>
</g>
<g>
</g>
</svg>
