<?xml version="1.0" encoding="iso-8859-1"?>
<!-- Generator: Adobe Illustrator 19.0.0, SVG Export Plug-In . SVG Version: 6.00 Build 0)  -->
<svg version="1.1" id="Capa_1" xmlns="http://www.w3.org/2000/svg" xmlns:xlink="http://www.w3.org/1999/xlink" x="0px" y="0px"
	 viewBox="0 0 512 512" style="enable-background:new 0 0 512 512;" xml:space="preserve">
<circle style="fill:#FFEC97;" cx="256" cy="256" r="256"/>
<path style="fill:#FFD400;" d="M512,256c0-21.508-2.667-42.391-7.663-62.351L392.8,82.137c-5.716-5.304-13.357-8.557-21.722-8.557
	H140.922c-17.599,0-31.999,14.399-31.999,31.999v296.844c0,9.487,4.185,18.043,10.8,23.917c0,0,38.406,38.457,79.231,79.273
	C217.299,509.787,236.391,512,256,512C397.385,512,512,397.385,512,256z"/>
<path style="fill:#FF127F;" d="M371.078,434.421H140.922c-17.599,0-31.999-14.399-31.999-31.999V105.578
	c0-17.599,14.399-31.999,31.999-31.999h230.156c17.599,0,31.999,14.399,31.999,31.999v296.844
	C403.077,420.021,388.677,434.421,371.078,434.421z"/>
<path style="fill:#B10853;" d="M403.08,105.58v296.84c0,17.6-14.4,32-32,32H256V73.58h115.08
	C388.68,73.58,403.08,87.98,403.08,105.58z"/>
<rect x="130.67" y="107.33" style="fill:#54FBFF;" width="250.67" height="303"/>
<rect x="256" y="107.33" style="fill:#00D9E0;" width="125.33" height="303"/>
<rect x="130.67" y="107.33" style="fill:#FFFFFF;" width="250.67" height="277.17"/>
<rect x="256" y="107.33" style="fill:#FFF5CB;" width="125.33" height="277.17"/>
<path style="fill:#FFAA20;" d="M306.958,87.917H205.042c-9.113,0-16.5,7.387-16.5,16.5v32.5c0,9.113,7.387,16.5,16.5,16.5h33.309
	c3.12,0,5.649-2.529,5.649-5.649l0,0c0-5.929,4.151-11.24,10.003-12.189c7.496-1.215,13.997,4.566,13.997,11.838v0.351
	c0,3.12,2.529,5.649,5.649,5.649h33.309c9.113,0,16.5-7.387,16.5-16.5v-32.5C323.458,95.304,316.071,87.917,306.958,87.917z
	 M311.458,104.417v32.5c0,2.485-2.015,4.5-4.5,4.5h-23.7c-2.222,0-4.279-1.285-5.149-3.329
	c-3.706-8.706-12.417-14.671-22.109-14.671c-9.692,0-18.403,5.965-22.108,14.67c-0.87,2.045-2.927,3.33-5.149,3.33h-23.701
	c-2.485,0-4.5-2.015-4.5-4.5v-32.5c0-2.485,2.015-4.5,4.5-4.5h101.916C309.443,99.917,311.458,101.932,311.458,104.417z"/>
<path style="fill:#E67500;" d="M306.96,87.92H256v12h50.96c2.48,0,4.5,2.01,4.5,4.5v32.5c0,2.48-2.02,4.5-4.5,4.5h-23.7
	c-2.22,0-4.28-1.29-5.15-3.33c-3.71-8.71-12.42-14.67-22.11-14.67v12c6.62,0,12,5.39,12,12v0.35c0,3.12,2.53,5.65,5.65,5.65h33.31
	c9.11,0,16.5-7.39,16.5-16.5v-32.5C323.46,95.3,316.07,87.92,306.96,87.92z"/>
<rect x="165.5" y="186" style="fill:#6D76E7;" width="181" height="19"/>
<rect x="256" y="186" style="fill:#1C2EDE;" width="90.5" height="19"/>
<rect x="165.5" y="233.08" style="fill:#6D76E7;" width="181" height="19"/>
<rect x="256" y="233.08" style="fill:#1C2EDE;" width="90.5" height="19.01"/>
<rect x="165.5" y="280.16" style="fill:#6D76E7;" width="181" height="19"/>
<rect x="256" y="280.16" style="fill:#1C2EDE;" width="90.5" height="19.01"/>
<rect x="165.5" y="327.25" style="fill:#6D76E7;" width="181" height="19"/>
<rect x="256" y="327.25" style="fill:#1C2EDE;" width="90.5" height="19"/>
<g>
</g>
<g>
</g>
<g>
</g>
<g>
</g>
<g>
</g>
<g>
</g>
<g>
</g>
<g>
</g>
<g>
</g>
<g>
</g>
<g>
</g>
<g>
</g>
<g>
</g>
<g>
</g>
<g>
</g>
</svg>
