<?xml version="1.0" encoding="iso-8859-1"?>
<!-- Generator: Adobe Illustrator 19.0.0, SVG Export Plug-In . SVG Version: 6.00 Build 0)  -->
<svg version="1.1" id="Capa_1" xmlns="http://www.w3.org/2000/svg" xmlns:xlink="http://www.w3.org/1999/xlink" x="0px" y="0px"
	 viewBox="0 0 512 512" style="enable-background:new 0 0 512 512;" xml:space="preserve">
<circle style="fill:#FFAA20;" cx="256" cy="256" r="256"/>
<path style="fill:#E67500;" d="M512,256c0-5.085-0.165-10.131-0.458-15.143L331.971,62.113c-7.06-7.445-17.039-12.096-28.082-12.096
	h-95.777c-21.346,0-38.718,17.372-38.718,38.718V103c0,10.389,4.116,19.835,10.802,26.796l28.223,27.863l-8.374,84.358h-79.934V425
	l81.104,81.104C218.866,509.953,237.193,512,256,512C397.385,512,512,397.385,512,256z"/>
<rect x="120.11" y="242.02" style="fill:#4A5BE5;" width="271.78" height="182.98"/>
<rect x="256" y="242.02" style="fill:#1C2EDE;" width="135.89" height="182.98"/>
<rect x="120.11" y="366" style="fill:#6D76E7;" width="271.78" height="59"/>
<rect x="256" y="366" style="fill:#4B5BE5;" width="135.89" height="59"/>
<path style="fill:#FFFFFF;" d="M342.607,88.735V103c0,21.346-17.372,38.718-38.718,38.718c-0.632,0-1.039,0.306-1.263,0.56
	c-0.234,0.255-0.499,0.693-0.438,1.325l15.559,156.728h-22.538l-15.324-154.517c-0.672-6.766,1.559-13.541,6.124-18.585
	c4.565-5.033,11.086-7.927,17.882-7.927c8.987,0,16.303-7.316,16.303-16.302V88.735c0-8.987-7.316-16.302-16.303-16.302h-95.777
	c-8.987,0-16.302,7.316-16.302,16.302V103c0,8.987,7.316,16.302,16.302,16.302c6.796,0,13.317,2.894,17.882,7.927
	c4.565,5.044,6.796,11.819,6.124,18.585l-15.324,154.517h-22.538l15.559-156.728c0.061-0.632-0.204-1.07-0.438-1.325
	c-0.224-0.255-0.632-0.56-1.263-0.56c-21.346,0-38.718-17.372-38.718-38.718V88.735c0-21.346,17.372-38.718,38.718-38.718h95.777
	C325.234,50.017,342.607,67.389,342.607,88.735z"/>
<path style="fill:#FFF5CB;" d="M342.61,88.74V103c0,21.35-17.38,38.72-38.72,38.72c-0.63,0-1.04,0.3-1.26,0.56
	c-0.24,0.25-0.5,0.69-0.44,1.32l9.77,98.42l5.79,58.31h-22.54l-5.78-58.31l-9.55-96.21c-0.67-6.76,1.56-13.54,6.13-18.58
	c4.56-5.03,11.08-7.93,17.88-7.93c8.99,0,16.3-7.31,16.3-16.3V88.74c0-8.99-7.31-16.31-16.3-16.31H256V50.02h47.89
	C325.23,50.02,342.61,67.39,342.61,88.74z"/>
<g>
</g>
<g>
</g>
<g>
</g>
<g>
</g>
<g>
</g>
<g>
</g>
<g>
</g>
<g>
</g>
<g>
</g>
<g>
</g>
<g>
</g>
<g>
</g>
<g>
</g>
<g>
</g>
<g>
</g>
</svg>
