<?xml version="1.0" encoding="iso-8859-1"?>
<!-- Generator: Adobe Illustrator 19.0.0, SVG Export Plug-In . SVG Version: 6.00 Build 0)  -->
<svg version="1.1" id="Capa_1" xmlns="http://www.w3.org/2000/svg" xmlns:xlink="http://www.w3.org/1999/xlink" x="0px" y="0px"
	 viewBox="0 0 512 512" style="enable-background:new 0 0 512 512;" xml:space="preserve">
<circle style="fill:#FFAA20;" cx="256" cy="256" r="256"/>
<path style="fill:#E67500;" d="M511.39,273.546L270.01,32.166h-28.02l-27.304,134.701h-24.738v45.57
	c-23.392,4.09-41.322,24.608-41.322,49.124v142.061c0,14.586,6.346,27.762,16.413,36.904l70.872,70.693
	C242.54,511.733,249.239,512,256,512C391.486,512,502.371,406.745,511.39,273.546z"/>
<polygon style="fill:#4B5BE5;" points="270.01,32.166 241.99,32.166 213.97,170.398 298.03,170.398 "/>
<polygon style="fill:#1C2EDE;" points="298.03,170.4 256,170.4 256,32.17 270.01,32.17 297.31,166.87 "/>
<rect x="189.95" y="166.87" style="fill:#7985EB;" width="132.11" height="46.24"/>
<rect x="256" y="166.87" style="fill:#4A5BE5;" width="66.05" height="46.24"/>
<path style="fill:#FFFFFF;" d="M313.496,453.5H198.504c-27.433,0-49.878-22.445-49.878-49.878V261.561
	c0-27.433,22.445-49.878,49.878-49.878h114.993c27.433,0,49.878,22.445,49.878,49.878v142.061
	C363.375,431.055,340.93,453.5,313.496,453.5z"/>
<path style="fill:#FFF5CB;" d="M363.37,261.56v142.06c0,27.43-22.44,49.88-49.87,49.88H256V211.68h57.5c2.91,0,5.77,0.25,8.55,0.74
	C345.44,216.5,363.37,237.04,363.37,261.56z"/>
<rect x="148.62" y="269.93" style="fill:#54FBFF;" width="214.75" height="125.32"/>
<rect x="256" y="269.93" style="fill:#00D9E0;" width="107.37" height="125.32"/>
<g>
</g>
<g>
</g>
<g>
</g>
<g>
</g>
<g>
</g>
<g>
</g>
<g>
</g>
<g>
</g>
<g>
</g>
<g>
</g>
<g>
</g>
<g>
</g>
<g>
</g>
<g>
</g>
<g>
</g>
</svg>
