<?xml version="1.0" encoding="iso-8859-1"?>
<!-- Generator: Adobe Illustrator 19.0.0, SVG Export Plug-In . SVG Version: 6.00 Build 0)  -->
<svg version="1.1" id="Capa_1" xmlns="http://www.w3.org/2000/svg" xmlns:xlink="http://www.w3.org/1999/xlink" x="0px" y="0px"
	 viewBox="0 0 512 512" style="enable-background:new 0 0 512 512;" xml:space="preserve">
<circle style="fill:#54FBFF;" cx="256" cy="256" r="256"/>
<path style="fill:#00B7BE;" d="M512,256c0-23.447-3.17-46.152-9.074-67.726L393.854,79.202H118.146v353.597l70.128,70.128
	C209.849,508.83,232.553,512,256,512C397.385,512,512,397.385,512,256z"/>
<rect x="118.15" y="79.2" style="fill:#FFB84D;" width="275.71" height="353.6"/>
<rect x="256" y="79.2" style="fill:#E67500;" width="137.85" height="353.6"/>
<rect x="143.83" y="101.28" style="fill:#FFFFFF;" width="224.34" height="76.38"/>
<rect x="256" y="101.28" style="fill:#FFED97;" width="112.17" height="76.39"/>
<g>
	<rect x="156.28" y="205.83" style="fill:#6D76E7;" width="55.712" height="55.712"/>
	<rect x="228.14" y="205.83" style="fill:#6D76E7;" width="55.712" height="55.712"/>
</g>
<g>
	<rect x="256" y="205.83" style="fill:#1C2EDE;" width="27.86" height="55.71"/>
	<rect x="300.01" y="205.83" style="fill:#1C2EDE;" width="55.712" height="55.712"/>
</g>
<g>
	<rect x="156.28" y="275.77" style="fill:#6D76E7;" width="55.712" height="55.712"/>
	<rect x="228.14" y="275.77" style="fill:#6D76E7;" width="55.712" height="55.712"/>
</g>
<g>
	<rect x="256" y="275.77" style="fill:#1C2EDE;" width="27.86" height="55.71"/>
	<rect x="300.01" y="275.77" style="fill:#1C2EDE;" width="55.712" height="55.712"/>
</g>
<g>
	<rect x="156.28" y="345.7" style="fill:#6D76E7;" width="55.712" height="55.712"/>
	<rect x="228.14" y="345.7" style="fill:#6D76E7;" width="55.712" height="55.712"/>
</g>
<rect x="256" y="345.7" style="fill:#1C2EDE;" width="27.86" height="55.72"/>
<rect x="300.01" y="345.7" style="fill:#B10853;" width="55.712" height="55.712"/>
<g>
</g>
<g>
</g>
<g>
</g>
<g>
</g>
<g>
</g>
<g>
</g>
<g>
</g>
<g>
</g>
<g>
</g>
<g>
</g>
<g>
</g>
<g>
</g>
<g>
</g>
<g>
</g>
<g>
</g>
</svg>
