<?xml version="1.0" encoding="iso-8859-1"?>
<!-- Generator: Adobe Illustrator 19.0.0, SVG Export Plug-In . SVG Version: 6.00 Build 0)  -->
<svg version="1.1" id="Capa_1" xmlns="http://www.w3.org/2000/svg" xmlns:xlink="http://www.w3.org/1999/xlink" x="0px" y="0px"
	 viewBox="0 0 512 512" style="enable-background:new 0 0 512 512;" xml:space="preserve">
<circle style="fill:#FF127F;" cx="256" cy="256" r="256"/>
<path style="fill:#B10853;" d="M511.728,267.578L322.81,78.57C305.872,61.172,282.2,50.362,256,50.362
	c-51.495,0-93.239,41.745-93.239,93.239c0,25.596,10.323,48.772,27.023,65.618l18.736,18.704v70.294h-62.163
	c-22.858,0-41.388,18.53-41.388,41.388v48.323l17.714,17.634v13.008l89.715,89.715C226.57,510.718,241.135,512,256,512
	C393.504,512,505.672,403.587,511.728,267.578z"/>
<rect x="208.52" y="217.63" style="fill:#00E8F2;" width="94.96" height="89.86"/>
<rect x="256" y="217.63" style="fill:#00B7BE;" width="47.48" height="89.86"/>
<rect x="122.68" y="383.49" style="fill:#FFB74F;" width="266.63" height="35.08"/>
<rect x="256" y="383.49" style="fill:#FF9A00;" width="133.32" height="35.08"/>
<path style="fill:#54FBFF;" d="M407.03,387.929H104.97v-48.323c0-22.858,18.53-41.388,41.388-41.388h219.285
	c22.858,0,41.388,18.53,41.388,41.388v48.323H407.03z"/>
<path style="fill:#00E8F2;" d="M407.03,339.61v48.32H256v-89.71h109.64C388.5,298.22,407.03,316.75,407.03,339.61z"/>
<circle style="fill:#54FBFF;" cx="256" cy="143.6" r="93.24"/>
<path style="fill:#00E8F2;" d="M349.24,143.6c0,34.16-18.37,64.02-45.76,80.25c-13.91,8.25-30.14,12.99-47.48,12.99V50.36
	C307.49,50.36,349.24,92.11,349.24,143.6z"/>
<circle style="fill:#FFFFFF;" cx="256" cy="143.6" r="53.03"/>
<path style="fill:#FFF5CB;" d="M309.03,143.6c0,29.29-23.74,53.03-53.03,53.03V90.57C285.29,90.57,309.03,114.32,309.03,143.6z"/>
<g>
</g>
<g>
</g>
<g>
</g>
<g>
</g>
<g>
</g>
<g>
</g>
<g>
</g>
<g>
</g>
<g>
</g>
<g>
</g>
<g>
</g>
<g>
</g>
<g>
</g>
<g>
</g>
<g>
</g>
</svg>
