<?xml version="1.0" encoding="iso-8859-1"?>
<!-- Generator: Adobe Illustrator 19.0.0, SVG Export Plug-In . SVG Version: 6.00 Build 0)  -->
<svg version="1.1" id="Capa_1" xmlns="http://www.w3.org/2000/svg" xmlns:xlink="http://www.w3.org/1999/xlink" x="0px" y="0px"
	 viewBox="0 0 512 512" style="enable-background:new 0 0 512 512;" xml:space="preserve">
<circle style="fill:#6D76E7;" cx="256" cy="256" r="256"/>
<path style="fill:#1C2EDE;" d="M512,256c0-1.254-0.03-2.501-0.047-3.751L301.534,41.832L105.519,237.847l7.507,7.507l0,0
	l1.024,1.024l-59.054,59.054L261.494,511.93C400.341,509.006,512,395.548,512,256z"/>
<rect x="152.102" y="70.996" transform="matrix(-0.7071 -0.7071 0.7071 -0.7071 259.2867 610.1086)" style="fill:#FFFFFF;" width="207.798" height="360.717"/>
<rect x="112.365" y="236.153" transform="matrix(-0.7071 0.7071 -0.7071 -0.7071 703.4379 284.8316)" style="fill:#FFF5CB;" width="360.727" height="103.899"/>
<rect x="169.561" y="83.231" transform="matrix(-0.7071 -0.7071 0.7071 -0.7071 330.5615 580.5916)" style="fill:#54FBFF;" width="231.928" height="277.207"/>
<rect x="187.915" y="204.855" transform="matrix(-0.7071 0.7071 -0.7071 -0.7071 743.2628 217.8001)" style="fill:#00D9E0;" width="277.217" height="115.959"/>
<rect x="94.552" y="264.317" transform="matrix(-0.7071 -0.7071 0.7071 -0.7071 149.4749 655.597)" style="fill:#FFAA20;" width="231.928" height="65.049"/>
<rect x="193.532" y="305.316" transform="matrix(-0.7071 -0.7071 0.7071 -0.7071 190.4755 754.5784)" style="fill:#E67500;" width="115.969" height="65.049"/>
<g>
</g>
<g>
</g>
<g>
</g>
<g>
</g>
<g>
</g>
<g>
</g>
<g>
</g>
<g>
</g>
<g>
</g>
<g>
</g>
<g>
</g>
<g>
</g>
<g>
</g>
<g>
</g>
<g>
</g>
</svg>
