<?xml version="1.0" encoding="iso-8859-1"?>
<!-- Generator: Adobe Illustrator 19.0.0, SVG Export Plug-In . SVG Version: 6.00 Build 0)  -->
<svg version="1.1" id="Capa_1" xmlns="http://www.w3.org/2000/svg" xmlns:xlink="http://www.w3.org/1999/xlink" x="0px" y="0px"
	 viewBox="0 0 512 512" style="enable-background:new 0 0 512 512;" xml:space="preserve">
<circle style="fill:#FFEC97;" cx="256" cy="256" r="256"/>
<path style="fill:#FFD400;" d="M512,256c0-15.981-1.478-31.614-4.28-46.784L389.003,90.499H122.997v102.897l28.521,28.47
	c5.546,10.136,8.705,21.765,8.705,34.134c0,27.025-15.05,50.533-37.226,62.604v102.897l86.219,86.219
	c15.17,2.802,30.803,4.28,46.784,4.28C397.385,512,512,397.385,512,256z"/>
<path style="fill:#FF127F;" d="M351.778,256c0-27.025,15.05-50.533,37.226-62.604V90.499H122.997v102.897
	c22.175,12.071,37.226,35.579,37.226,62.604s-15.05,50.533-37.226,62.604v102.897h266.007V318.604
	C366.828,306.533,351.778,283.025,351.778,256z"/>
<path style="fill:#B10853;" d="M351.78,256c0,27.02,15.05,50.53,37.22,62.6v102.9H256v-331h133v102.9
	C366.83,205.47,351.78,228.98,351.78,256z"/>
<path style="fill:#FFFFFF;" d="M295.092,421.501h-78.185V201.09c0-21.589,17.501-39.09,39.09-39.09l0,0
	c21.591,0,39.095,17.503,39.095,39.095V421.501z"/>
<path style="fill:#FFF5CB;" d="M295.09,201.09V421.5H256V162l0,0C277.589,162,295.09,179.501,295.09,201.09z"/>
<circle style="fill:#E1E1E3;" cx="256" cy="346.84" r="25.497"/>
<path style="fill:#C8C6CC;" d="M281.5,346.84c0,14.08-11.42,25.49-25.5,25.49v-50.99C270.08,321.34,281.5,332.75,281.5,346.84z"/>
<g>
</g>
<g>
</g>
<g>
</g>
<g>
</g>
<g>
</g>
<g>
</g>
<g>
</g>
<g>
</g>
<g>
</g>
<g>
</g>
<g>
</g>
<g>
</g>
<g>
</g>
<g>
</g>
<g>
</g>
</svg>
