<?xml version="1.0" encoding="iso-8859-1"?>
<!-- Generator: Adobe Illustrator 19.0.0, SVG Export Plug-In . SVG Version: 6.00 Build 0)  -->
<svg version="1.1" id="Capa_1" xmlns="http://www.w3.org/2000/svg" xmlns:xlink="http://www.w3.org/1999/xlink" x="0px" y="0px"
	 viewBox="0 0 512 512" style="enable-background:new 0 0 512 512;" xml:space="preserve">
<circle style="fill:#6D76E7;" cx="256" cy="256" r="256"/>
<path style="fill:#1C2EDE;" d="M512,256c0-33.662-6.509-65.799-18.318-95.241L422.583,89.66H310.5l-18.737-17.124h-71.526V89.66
	H89.416v323.319l86.095,86.095C200.823,507.452,227.879,512,256,512C397.385,512,512,397.385,512,256z"/>
<rect x="220.24" y="72.54" style="fill:#E1E1E3;" width="71.53" height="17.574"/>
<rect x="256" y="72.54" style="fill:#C8C6CC;" width="35.76" height="17.57"/>
<rect x="89.42" y="89.66" style="fill:#FFFFFF;" width="333.17" height="323.32"/>
<rect x="256" y="89.66" style="fill:#FFF5CB;" width="166.58" height="323.32"/>
<circle style="fill:#FF53A1;" cx="148.25" cy="303.67" r="23.946"/>
<circle style="fill:#FFB74F;" cx="220.08" cy="303.67" r="23.945"/>
<circle style="fill:#00B7BE;" cx="291.92" cy="303.67" r="23.945"/>
<circle style="fill:#FDC000;" cx="363.75" cy="303.67" r="23.946"/>
<circle style="fill:#54FBFF;" cx="148.25" cy="365.27" r="23.946"/>
<circle style="fill:#E80C6A;" cx="220.08" cy="365.27" r="23.945"/>
<circle style="fill:#E67500;" cx="291.92" cy="365.27" r="23.945"/>
<circle style="fill:#3A4DE3;" cx="363.75" cy="365.27" r="23.946"/>
<rect x="89.42" y="242.47" style="fill:#E1E1E3;" width="333.17" height="17.692"/>
<rect x="256" y="242.47" style="fill:#C8C6CC;" width="166.58" height="17.7"/>
<rect x="104.76" y="103.8" style="fill:#E1E1E3;" width="302.48" height="122.51"/>
<rect x="256" y="103.8" style="fill:#C8C6CC;" width="151.24" height="122.51"/>
<g>
</g>
<g>
</g>
<g>
</g>
<g>
</g>
<g>
</g>
<g>
</g>
<g>
</g>
<g>
</g>
<g>
</g>
<g>
</g>
<g>
</g>
<g>
</g>
<g>
</g>
<g>
</g>
<g>
</g>
</svg>
