<?xml version="1.0" encoding="iso-8859-1"?>
<!-- Generator: Adobe Illustrator 19.0.0, SVG Export Plug-In . SVG Version: 6.00 Build 0)  -->
<svg version="1.1" id="Capa_1" xmlns="http://www.w3.org/2000/svg" xmlns:xlink="http://www.w3.org/1999/xlink" x="0px" y="0px"
	 viewBox="0 0 512 512" style="enable-background:new 0 0 512 512;" xml:space="preserve">
<circle style="fill:#FFEC97;" cx="256" cy="256" r="256"/>
<path style="fill:#FFD400;" d="M512,256c0-9.74-0.563-19.347-1.622-28.804L346.734,63.551L63.552,346.734l163.644,163.644
	C236.653,511.437,246.26,512,256,512C397.385,512,512,397.385,512,256z"/>
<rect x="188.669" y="57.656" transform="matrix(-0.7071 -0.7071 0.7071 -0.7071 257.9004 622.6144)" style="fill:#4B5BE5;" width="138.459" height="400.476"/>
<rect x="85.303" y="255.39" transform="matrix(-0.7071 0.7071 -0.7071 -0.7071 689.3557 285.5395)" style="fill:#1C2EDE;" width="400.476" height="60.299"/>
<rect x="198.81" y="20.184" transform="matrix(-0.7071 -0.7071 0.7071 -0.7071 220.4356 532.1516)" style="fill:#FFFFFF;" width="43.24" height="400.476"/>
<g>
	
		<rect x="315.324" y="93.465" transform="matrix(-0.7071 -0.7071 0.7071 -0.7071 488.8346 402.7451)" style="fill:#4B5BE5;" width="25.01" height="13.333"/>
	
		<rect x="282.797" y="126.002" transform="matrix(-0.7071 -0.7071 0.7071 -0.7071 410.3006 435.2893)" style="fill:#4B5BE5;" width="25.01" height="13.333"/>
	
		<rect x="250.263" y="158.522" transform="matrix(-0.7071 -0.7071 0.7071 -0.7071 331.7666 467.7995)" style="fill:#4B5BE5;" width="25.01" height="13.333"/>
	
		<rect x="217.739" y="191.052" transform="matrix(-0.7071 -0.7071 0.7071 -0.7071 253.2426 500.3338)" style="fill:#4B5BE5;" width="25.01" height="13.333"/>
	
		<rect x="185.219" y="223.582" transform="matrix(-0.7071 -0.7071 0.7071 -0.7071 174.7257 532.871)" style="fill:#4B5BE5;" width="25.01" height="13.333"/>
	
		<rect x="152.685" y="256.107" transform="matrix(-0.7071 -0.7071 0.7071 -0.7071 96.1882 565.3897)" style="fill:#4B5BE5;" width="25.01" height="13.333"/>
	
		<rect x="120.161" y="288.634" transform="matrix(-0.7071 -0.7071 0.7071 -0.7071 17.6663 597.9189)" style="fill:#4B5BE5;" width="25.01" height="13.333"/>
	
		<rect x="87.642" y="321.162" transform="matrix(-0.7071 -0.7071 0.7071 -0.7071 -60.8492 630.4527)" style="fill:#4B5BE5;" width="25.01" height="13.333"/>
</g>
<g>
</g>
<g>
</g>
<g>
</g>
<g>
</g>
<g>
</g>
<g>
</g>
<g>
</g>
<g>
</g>
<g>
</g>
<g>
</g>
<g>
</g>
<g>
</g>
<g>
</g>
<g>
</g>
<g>
</g>
</svg>
