<?xml version="1.0" encoding="iso-8859-1"?>
<!-- Generator: Adobe Illustrator 19.0.0, SVG Export Plug-In . SVG Version: 6.00 Build 0)  -->
<svg version="1.1" id="Capa_1" xmlns="http://www.w3.org/2000/svg" xmlns:xlink="http://www.w3.org/1999/xlink" x="0px" y="0px"
	 viewBox="0 0 512 512" style="enable-background:new 0 0 512 512;" xml:space="preserve">
<circle style="fill:#54FBFF;" cx="256" cy="256" r="256"/>
<path style="fill:#00B7BE;" d="M512,256c0-16.428-1.566-32.489-4.523-48.056L368.244,68.711L144.501,254.793l-13.398,13.398
	l4.24,9.003c12.185,25.868,6.775,56.605-13.511,76.758l-6.492,6.45l4.551,4.551L90.074,394.77L201.46,506.158
	C219.037,509.972,237.281,512,256,512C397.385,512,512,397.385,512,256z"/>
<polygon style="fill:#FFAA20;" points="136.136,415.622 90.073,394.771 121.336,363.508 154.793,396.965 "/>
<polygon style="fill:#FF8900;" points="154.795,396.962 136.133,415.623 113.103,405.199 138.067,380.234 "/>
<path style="fill:#57555C;" d="M144.501,254.793l-13.398,13.398l4.24,9.003c12.185,25.868,6.775,56.605-13.51,76.758l-6.493,6.45
	l42.559,42.559l6.45-6.492c20.153-20.285,50.89-25.695,76.758-13.51l9.003,4.241l13.398-13.398l-54.249-64.758L144.501,254.793z"/>
<path style="fill:#2A2A2C;" d="M263.51,373.804l-13.4,13.4l-9.001-4.249c-25.871-12.186-56.606-6.768-76.759,13.52l-6.453,6.483
	l-21.277-21.277l72.637-72.637l22.791,27.213L263.51,373.804z"/>
<polygon style="fill:#FFB74F;" points="449.59,150.057 368.244,68.711 144.501,254.793 263.508,373.8 "/>
<g>
	<polygon style="fill:#FF8900;" points="263.51,373.804 204.004,314.297 408.919,109.382 449.592,150.055 	"/>
	
		<rect x="271.096" y="66.946" transform="matrix(-0.7071 -0.7071 0.7071 -0.7071 373.3593 578.3304)" style="fill:#FF8900;" width="70.719" height="289.787"/>
</g>
<rect x="174.06" y="206.668" transform="matrix(-0.7071 0.7071 -0.7071 -0.7071 703.1262 157.4511)" style="fill:#C06100;" width="289.787" height="35.36"/>
<g>
</g>
<g>
</g>
<g>
</g>
<g>
</g>
<g>
</g>
<g>
</g>
<g>
</g>
<g>
</g>
<g>
</g>
<g>
</g>
<g>
</g>
<g>
</g>
<g>
</g>
<g>
</g>
<g>
</g>
</svg>
