<?xml version="1.0" encoding="iso-8859-1"?>
<!-- Generator: Adobe Illustrator 19.0.0, SVG Export Plug-In . SVG Version: 6.00 Build 0)  -->
<svg version="1.1" id="Capa_1" xmlns="http://www.w3.org/2000/svg" xmlns:xlink="http://www.w3.org/1999/xlink" x="0px" y="0px"
	 viewBox="0 0 512 512" style="enable-background:new 0 0 512 512;" xml:space="preserve">
<circle style="fill:#FF127F;" cx="256" cy="256" r="256"/>
<path style="fill:#B10853;" d="M512,256c0-22.911-3.027-45.112-8.672-66.243l-96.684-96.684H105.356v323.854l87.126,87.126
	C212.793,509.238,234.074,512,256,512C397.385,512,512,397.385,512,256z"/>
<rect x="105.36" y="114.25" style="fill:#FDC000;" width="301.29" height="302.67"/>
<rect x="256" y="114.25" style="fill:#FF8900;" width="150.64" height="302.68"/>
<rect x="105.36" y="114.25" style="fill:#FFDB2D;" width="301.29" height="287.7"/>
<rect x="256" y="114.25" style="fill:#FDC000;" width="150.64" height="287.71"/>
<polygon style="fill:#FFEC97;" points="406.644,114.253 105.356,114.253 105.356,385.333 336.424,385.333 406.644,315.113 "/>
<polygon style="fill:#FFDF47;" points="406.64,114.25 406.64,315.11 336.42,385.33 256,385.33 256,114.25 "/>
<g>
	<rect x="162.33" y="211.44" style="fill:#FFDB2D;" width="187.33" height="19.333"/>
	<rect x="162.33" y="258.11" style="fill:#FFDB2D;" width="187.33" height="19.333"/>
	<rect x="162.33" y="304.77" style="fill:#FFDB2D;" width="187.33" height="19.333"/>
</g>
<rect x="105.36" y="93.07" style="fill:#FFB74F;" width="301.29" height="76.896"/>
<rect x="256" y="93.07" style="fill:#FF8900;" width="150.64" height="76.9"/>
<g>
	<rect x="256" y="211.44" style="fill:#FDC000;" width="93.67" height="19.33"/>
	<rect x="256" y="258.11" style="fill:#FDC000;" width="93.67" height="19.33"/>
	<rect x="256" y="304.77" style="fill:#FDC000;" width="93.67" height="19.34"/>
</g>
<polygon style="fill:#FF8900;" points="336.424,385.333 406.644,315.113 336.424,315.113 "/>
<g>
</g>
<g>
</g>
<g>
</g>
<g>
</g>
<g>
</g>
<g>
</g>
<g>
</g>
<g>
</g>
<g>
</g>
<g>
</g>
<g>
</g>
<g>
</g>
<g>
</g>
<g>
</g>
<g>
</g>
</svg>
