<?xml version="1.0" encoding="iso-8859-1"?>
<!-- Generator: Adobe Illustrator 19.0.0, SVG Export Plug-In . SVG Version: 6.00 Build 0)  -->
<svg version="1.1" id="Capa_1" xmlns="http://www.w3.org/2000/svg" xmlns:xlink="http://www.w3.org/1999/xlink" x="0px" y="0px"
	 viewBox="0 0 512 512" style="enable-background:new 0 0 512 512;" xml:space="preserve">
<circle style="fill:#FFAA20;" cx="256" cy="256" r="256"/>
<path style="fill:#E67500;" d="M512,256c0-19.069-2.103-37.645-6.057-55.525L354.134,48.667H157.866v84.039h-16.724v46.65h-38.127
	v184.067L157.866,419v38.333l50.159,50.159C223.568,510.439,239.6,512,256,512C397.385,512,512,397.385,512,256z"/>
<rect x="157.87" y="48.667" style="fill:#FFFFFF;" width="196.27" height="134.56"/>
<rect x="256" y="48.67" style="fill:#FFF5CB;" width="98.14" height="134.56"/>
<rect x="141.14" y="132.71" style="fill:#6D76E7;" width="33.448" height="50.52"/>
<rect x="337.41" y="132.71" style="fill:#3A4DE3;" width="33.449" height="50.52"/>
<rect x="103.02" y="179.36" style="fill:#54FBFF;" width="305.97" height="135.5"/>
<rect x="256" y="179.36" style="fill:#00D9E0;" width="152.99" height="135.5"/>
<rect x="103.02" y="312.43" style="fill:#6D76E7;" width="305.97" height="50.995"/>
<g>
	<rect x="256" y="312.43" style="fill:#3A4DE3;" width="152.99" height="50.993"/>
	<rect x="157.87" y="332.92" style="fill:#3A4DE3;" width="196.27" height="30.502"/>
</g>
<rect x="256" y="332.92" style="fill:#1C2EDE;" width="98.14" height="30.502"/>
<rect x="157.87" y="348.17" style="fill:#FFFFFF;" width="196.27" height="109.16"/>
<rect x="256" y="348.17" style="fill:#FFF5CB;" width="98.14" height="109.16"/>
<circle style="fill:#FFDF47;" cx="382.2" cy="337.93" r="11.346"/>
<rect x="194.49" y="374.22" style="fill:#FF127F;" width="123.02" height="15.495"/>
<rect x="256" y="374.22" style="fill:#B10853;" width="61.51" height="15.503"/>
<rect x="194.49" y="409.91" style="fill:#FF127F;" width="123.02" height="15.495"/>
<rect x="256" y="409.91" style="fill:#B10853;" width="61.51" height="15.493"/>
<g>
</g>
<g>
</g>
<g>
</g>
<g>
</g>
<g>
</g>
<g>
</g>
<g>
</g>
<g>
</g>
<g>
</g>
<g>
</g>
<g>
</g>
<g>
</g>
<g>
</g>
<g>
</g>
<g>
</g>
</svg>
