<?xml version="1.0" encoding="iso-8859-1"?>
<!-- Generator: Adobe Illustrator 19.0.0, SVG Export Plug-In . SVG Version: 6.00 Build 0)  -->
<svg version="1.1" id="Capa_1" xmlns="http://www.w3.org/2000/svg" xmlns:xlink="http://www.w3.org/1999/xlink" x="0px" y="0px"
	 viewBox="0 0 512 512" style="enable-background:new 0 0 512 512;" xml:space="preserve">
<circle style="fill:#54FBFF;" cx="256" cy="256" r="256"/>
<path style="fill:#00B7BE;" d="M512,256c0-14.313-1.194-28.345-3.452-42.018l-121.61-121.61H92.5v317.256l92.34,92.34
	C207.433,508.493,231.306,512,256,512C397.385,512,512,397.385,512,256z"/>
<polygon style="fill:#FF127F;" points="419.5,409.628 92.5,409.628 92.5,92.372 386.938,92.372 419.5,134.891 "/>
<polygon style="fill:#B10853;" points="419.5,134.89 419.5,409.63 256,409.63 256,92.37 386.94,92.37 "/>
<path style="fill:#FFFFFF;" d="M162.29,92.372v102.21c0,7.733,6.269,14.002,14.002,14.002h159.416
	c7.733,0,14.002-6.269,14.002-14.002V92.372H162.29z M319.621,185.555H289.09v-72.099h30.531V185.555z"/>
<path style="fill:#FFF5CB;" d="M256,92.37v116.21h79.71c7.73,0,14-6.27,14-14V92.37H256z M319.62,185.55h-30.53v-72.09h30.53V185.55
	z"/>
<rect x="162.29" y="258.89" style="fill:#FFFFFF;" width="187.42" height="150.73"/>
<rect x="256" y="258.89" style="fill:#FFF5CB;" width="93.71" height="150.74"/>
<rect x="183.72" y="284.76" style="fill:#FFEC97;" width="144.55" height="10.629"/>
<rect x="256" y="284.76" style="fill:#FFCF00;" width="72.28" height="10.63"/>
<rect x="183.72" y="314.11" style="fill:#FFEC97;" width="144.55" height="10.629"/>
<rect x="256" y="314.11" style="fill:#FFCF00;" width="72.28" height="10.62"/>
<rect x="183.72" y="343.45" style="fill:#FFEC97;" width="144.55" height="10.629"/>
<rect x="256" y="343.45" style="fill:#FFCF00;" width="72.28" height="10.63"/>
<rect x="183.72" y="372.8" style="fill:#FFEC97;" width="144.55" height="10.629"/>
<rect x="256" y="372.8" style="fill:#FFCF00;" width="72.28" height="10.63"/>
<g>
</g>
<g>
</g>
<g>
</g>
<g>
</g>
<g>
</g>
<g>
</g>
<g>
</g>
<g>
</g>
<g>
</g>
<g>
</g>
<g>
</g>
<g>
</g>
<g>
</g>
<g>
</g>
<g>
</g>
</svg>
