<?xml version="1.0" encoding="iso-8859-1"?>
<!-- Generator: Adobe Illustrator 19.0.0, SVG Export Plug-In . SVG Version: 6.00 Build 0)  -->
<svg version="1.1" id="Capa_1" xmlns="http://www.w3.org/2000/svg" xmlns:xlink="http://www.w3.org/1999/xlink" x="0px" y="0px"
	 viewBox="0 0 512 512" style="enable-background:new 0 0 512 512;" xml:space="preserve">
<circle style="fill:#FFC473;" cx="256" cy="256" r="256"/>
<path style="fill:#FF9A00;" d="M512,256c0-25.729-3.812-50.565-10.874-73.992L387.119,68.002L69.192,385.93l116.203,116.203
	C207.823,508.555,231.509,512,256,512C397.385,512,512,397.385,512,256z"/>
<path style="fill:#4B5BE5;" d="M69.192,385.93H387.12V68.002L69.192,385.93z M337.962,336.772H197.65l140.311-140.311v140.311
	H337.962z"/>
<path style="fill:#1C2EDE;" d="M260.49,194.63v79.3l77.47-77.47v140.31h-77.47v49.16h126.63V68L260.49,194.63z"/>
<g>
	
		<rect x="114.206" y="337.782" transform="matrix(-0.7071 0.7071 -0.7071 -0.7071 452.7721 507.278)" style="fill:#54FBFF;" width="14.239" height="19.259"/>
	
		<rect x="142.616" y="309.374" transform="matrix(-0.7071 0.7071 -0.7071 -0.7071 481.1839 438.6946)" style="fill:#54FBFF;" width="14.239" height="19.259"/>
	
		<rect x="171.026" y="280.957" transform="matrix(-0.7071 0.7071 -0.7071 -0.7071 509.5887 370.0941)" style="fill:#54FBFF;" width="14.239" height="19.259"/>
	
		<rect x="199.436" y="252.549" transform="matrix(-0.7071 0.7071 -0.7071 -0.7071 538.0005 301.5107)" style="fill:#54FBFF;" width="14.239" height="19.259"/>
	
		<rect x="227.846" y="224.156" transform="matrix(-0.7071 0.7071 -0.7071 -0.7071 566.4223 232.9514)" style="fill:#54FBFF;" width="14.239" height="19.259"/>
	
		<rect x="256.246" y="195.739" transform="matrix(-0.7071 0.7071 -0.7071 -0.7071 594.81 164.358)" style="fill:#54FBFF;" width="14.239" height="19.259"/>
</g>
<g>
	<polygon style="fill:#00B7BE;" points="275.22,207.14 265.15,217.21 260.49,212.55 260.49,194.63 261.6,193.52 	"/>
	
		<rect x="284.657" y="167.331" transform="matrix(-0.7071 0.7071 -0.7071 -0.7071 623.2235 95.7739)" style="fill:#00B7BE;" width="14.239" height="19.259"/>
	
		<rect x="313.066" y="138.924" transform="matrix(-0.7071 0.7071 -0.7071 -0.7071 651.6337 27.1912)" style="fill:#00B7BE;" width="14.239" height="19.259"/>
	
		<rect x="341.476" y="110.507" transform="matrix(-0.7071 0.7071 -0.7071 -0.7071 680.0384 -41.4093)" style="fill:#00B7BE;" width="14.239" height="19.259"/>
</g>
<g>
</g>
<g>
</g>
<g>
</g>
<g>
</g>
<g>
</g>
<g>
</g>
<g>
</g>
<g>
</g>
<g>
</g>
<g>
</g>
<g>
</g>
<g>
</g>
<g>
</g>
<g>
</g>
<g>
</g>
</svg>
