<?xml version="1.0" encoding="iso-8859-1"?>
<!-- Generator: Adobe Illustrator 19.0.0, SVG Export Plug-In . SVG Version: 6.00 Build 0)  -->
<svg version="1.1" id="Capa_1" xmlns="http://www.w3.org/2000/svg" xmlns:xlink="http://www.w3.org/1999/xlink" x="0px" y="0px"
	 viewBox="0 0 512 512" style="enable-background:new 0 0 512 512;" xml:space="preserve">
<circle style="fill:#6D76E7;" cx="256" cy="256" r="256"/>
<path style="fill:#1C2EDE;" d="M512,256c0-26.024-3.896-51.135-11.114-74.797l-75.22-75.219H86.333v300.033l94.87,94.87
	C204.865,508.105,229.976,512,256,512C397.385,512,512,397.385,512,256z"/>
<rect x="97.12" y="105.98" style="fill:#00D9E0;" width="328.54" height="300.03"/>
<rect x="276.22" y="105.98" style="fill:#00B7BE;" width="149.45" height="300.04"/>
<rect x="86.33" y="105.98" style="fill:#54FBFF;" width="41.625" height="300.03"/>
<path style="fill:#FFFFFF;" d="M276.223,126.664c-71.431,0-129.336,57.905-129.336,129.336s57.905,129.336,129.336,129.336
	S405.559,327.431,405.559,256S347.654,126.664,276.223,126.664z M276.223,283.065c-14.946,0-27.065-12.119-27.065-27.065
	c0-14.946,12.119-27.065,27.065-27.065s27.065,12.119,27.065,27.065C303.288,270.946,291.169,283.065,276.223,283.065z"/>
<g>
	<path style="fill:#FFF5CB;" d="M276.22,126.66v102.28c14.95,0,27.07,12.11,27.07,27.06c0,14.95-12.12,27.06-27.07,27.06v102.28
		c71.43,0,129.34-57.91,129.34-129.34S347.65,126.66,276.22,126.66z"/>
	<path style="fill:#FFF5CB;" d="M276.223,228.935c4.835,0,9.37,1.274,13.298,3.496l50.266-89.087
		c-18.773-10.615-40.459-16.68-63.564-16.68s-44.791,6.065-63.564,16.68l50.265,89.087
		C266.853,230.209,271.388,228.935,276.223,228.935z"/>
</g>
<path style="fill:#FFEC97;" d="M339.79,143.34l-50.27,89.09c-3.93-2.22-8.46-3.49-13.3-3.49V126.66
	C299.33,126.66,321.01,132.73,339.79,143.34z"/>
<path style="fill:#FFF5CB;" d="M276.223,283.065c-4.898,0-9.489-1.309-13.453-3.585l-50.266,89.089
	c18.809,10.67,40.551,16.767,63.72,16.767s44.911-6.098,63.72-16.767l-50.267-89.089
	C285.712,281.756,281.121,283.065,276.223,283.065z"/>
<path style="fill:#FFEC97;" d="M339.94,368.57c-18.81,10.67-40.55,16.77-63.72,16.77V283.06c4.9,0,9.49-1.3,13.46-3.58
	L339.94,368.57z"/>
<path style="fill:#FFE670;" d="M276.223,212.494c-24.029,0-43.506,19.477-43.506,43.506c0,24.03,19.477,43.506,43.506,43.506
	S319.729,280.03,319.729,256C319.729,231.971,300.252,212.494,276.223,212.494z M276.223,274.5c-10.216,0-18.5-8.284-18.5-18.5
	s8.284-18.5,18.5-18.5s18.5,8.284,18.5,18.5S286.439,274.5,276.223,274.5z"/>
<path style="fill:#FDC000;" d="M276.22,212.49v25.01c10.22,0,18.5,8.28,18.5,18.5s-8.28,18.5-18.5,18.5v25.01
	c24.03,0,43.51-19.48,43.51-43.51S300.25,212.49,276.22,212.49z"/>
<g>
</g>
<g>
</g>
<g>
</g>
<g>
</g>
<g>
</g>
<g>
</g>
<g>
</g>
<g>
</g>
<g>
</g>
<g>
</g>
<g>
</g>
<g>
</g>
<g>
</g>
<g>
</g>
<g>
</g>
</svg>
