<?xml version="1.0" encoding="iso-8859-1"?>
<!-- Generator: Adobe Illustrator 19.0.0, SVG Export Plug-In . SVG Version: 6.00 Build 0)  -->
<svg version="1.1" id="Capa_1" xmlns="http://www.w3.org/2000/svg" xmlns:xlink="http://www.w3.org/1999/xlink" x="0px" y="0px"
	 viewBox="0 0 512 512" style="enable-background:new 0 0 512 512;" xml:space="preserve">
<circle style="fill:#FF127F;" cx="256" cy="256" r="256"/>
<path style="fill:#B10853;" d="M512,256c0-23.671-3.228-46.585-9.241-68.343l-67.029-67.028H76.269v270.743L187.657,502.76
	C209.415,508.772,232.329,512,256,512C397.385,512,512,397.385,512,256z"/>
<rect x="76.27" y="120.63" style="fill:#FFEC97;" width="359.46" height="270.74"/>
<g>
	<rect x="256" y="120.63" style="fill:#FFDF47;" width="179.73" height="270.74"/>
	<polygon style="fill:#FFDF47;" points="435.731,391.372 256,217 76.269,391.372 	"/>
</g>
<polygon style="fill:#FEC000;" points="435.73,391.37 256,391.37 256,217 295.39,255.22 "/>
<polygon style="fill:#FFB74F;" points="76.269,120.628 256,293 435.731,120.628 "/>
<polygon style="fill:#FF9A00;" points="435.73,120.63 256,293 256,120.63 "/>
<g>
</g>
<g>
</g>
<g>
</g>
<g>
</g>
<g>
</g>
<g>
</g>
<g>
</g>
<g>
</g>
<g>
</g>
<g>
</g>
<g>
</g>
<g>
</g>
<g>
</g>
<g>
</g>
<g>
</g>
</svg>
