<?xml version="1.0" encoding="iso-8859-1"?>
<!-- Generator: Adobe Illustrator 19.0.0, SVG Export Plug-In . SVG Version: 6.00 Build 0)  -->
<svg version="1.1" id="Capa_1" xmlns="http://www.w3.org/2000/svg" xmlns:xlink="http://www.w3.org/1999/xlink" x="0px" y="0px"
	 viewBox="0 0 512 512" style="enable-background:new 0 0 512 512;" xml:space="preserve">
<circle style="fill:#FFE670;" cx="256" cy="256" r="256"/>
<path style="fill:#FDC000;" d="M512,256c0-16.625-1.604-32.872-4.63-48.614L371.911,71.927L146.836,297.002l0,0l-37.396,74.823
	l4.336,4.336c-3.577,3.593-15.498,16.634-12.652,28.269c0,0,64.603,63.825,102.997,102.307C220.876,510.185,238.226,512,256,512
	C397.385,512,512,397.385,512,256z"/>
<polygon style="fill:#FFF5CB;" points="404.416,155.289 386.997,172.709 407.808,193.52 339.339,261.989 329.896,252.547 
	299.887,282.556 317.723,300.392 433.621,184.494 "/>
<path style="fill:#6D76E7;" d="M130.36,390.784l-15.59-15.59c0,0-16.983,15.59-13.646,29.236
	C114.77,407.767,130.36,390.784,130.36,390.784z"/>
<path style="fill:#1C2EDE;" d="M129.391,391.776c-3.613,3.599-16.645,15.5-28.263,12.65l21.439-21.44l7.792,7.792
	C130.359,390.779,130.013,391.154,129.391,391.776z"/>
<polygon style="fill:#FFFFFF;" points="150.976,292.863 146.836,297.002 109.441,371.825 133.729,396.113 208.552,358.717 
	212.691,354.578 "/>
<polygon style="fill:#FFF5CB;" points="212.695,354.575 208.551,358.719 133.725,396.111 121.584,383.97 181.837,323.717 "/>
<rect x="236.841" y="79.696" transform="matrix(-0.7071 -0.7071 0.7071 -0.7071 319.6655 582.5385)" style="fill:#4B5BE5;" width="87.279" height="290.737"/>
<rect x="150.537" y="218.68" transform="matrix(-0.7071 0.7071 -0.7071 -0.7071 675.2012 201.3217)" style="fill:#1C2EDE;" width="290.737" height="43.64"/>
<rect x="226.934" y="222.653" transform="matrix(-0.7071 -0.7071 0.7071 -0.7071 295.7436 592.4548)" style="fill:#FFFFFF;" width="87.279" height="24.647"/>
<rect x="273.676" y="228.595" transform="matrix(-0.7071 0.7071 -0.7071 -0.7071 665.2945 225.2546)" style="fill:#FFF5CB;" width="24.64" height="43.64"/>
<rect x="348.977" y="98.574" transform="matrix(-0.7071 -0.7071 0.7071 -0.7071 590.3875 470.3995)" style="fill:#FFFFFF;" width="87.279" height="28.706"/>
<rect x="393.7" y="106.548" transform="matrix(-0.7071 0.7071 -0.7071 -0.7071 787.3543 -69.3963)" style="fill:#FFF5CB;" width="28.7" height="43.64"/>
<g>
</g>
<g>
</g>
<g>
</g>
<g>
</g>
<g>
</g>
<g>
</g>
<g>
</g>
<g>
</g>
<g>
</g>
<g>
</g>
<g>
</g>
<g>
</g>
<g>
</g>
<g>
</g>
<g>
</g>
</svg>
