<?xml version="1.0" encoding="iso-8859-1"?>
<!-- Generator: Adobe Illustrator 19.0.0, SVG Export Plug-In . SVG Version: 6.00 Build 0)  -->
<svg version="1.1" id="Capa_1" xmlns="http://www.w3.org/2000/svg" xmlns:xlink="http://www.w3.org/1999/xlink" x="0px" y="0px"
	 viewBox="0 0 512 512" style="enable-background:new 0 0 512 512;" xml:space="preserve">
<circle style="fill:#6D76E7;" cx="256" cy="256" r="256"/>
<path style="fill:#1C2EDE;" d="M512,256c0-14.088-1.156-27.905-3.345-41.375l-98.508-98.508c-39.034-39.034-102.546-39.034-141.58,0
	L96.813,287.871c-28.925,28.925-28.925,75.991,0,104.916l115.481,115.481C226.498,510.712,241.098,512,256,512
	C397.385,512,512,397.385,512,256z"/>
<path style="fill:#FFEC97;" d="M96.813,392.788c-28.926-28.926-28.926-75.991,0-104.916l171.754-171.754
	c39.034-39.034,102.546-39.034,141.58,0s39.035,102.547,0.001,141.581l-136.401,136.4l-21.225-21.225l136.401-136.401
	c27.33-27.33,27.33-71.799,0-99.13c-27.33-27.33-71.801-27.331-99.131-0.001L118.038,309.096c-17.222,17.222-17.222,45.244,0,62.466
	s45.244,17.222,62.466,0L341.446,210.62c7.114-7.114,7.113-18.689,0-25.802c-7.114-7.114-18.689-7.115-25.803-0.001L165.051,335.41
	l-21.225-21.225l150.593-150.593c18.817-18.817,49.435-18.817,68.253,0.001c18.817,18.817,18.817,49.435,0,68.252L201.73,392.788
	C172.804,421.713,125.739,421.713,96.813,392.788z"/>
<g>
	<path style="fill:#FFAA20;" d="M410.147,257.694L273.746,394.095l-21.22-21.22l136.401-136.401
		c27.33-27.33,27.323-71.8-0.007-99.129l21.227-21.227C449.179,155.15,449.179,218.662,410.147,257.694z"/>
	<path style="fill:#FFAA20;" d="M362.672,231.843L201.727,392.787c-22.479,22.479-55.911,27.485-83.276,15.026l23.879-23.879
		c13.499,2.128,27.803-1.994,38.177-12.367l160.945-160.945c7.113-7.113,7.107-18.689-0.007-25.802l21.227-21.227
		C381.488,182.409,381.488,213.027,362.672,231.843z"/>
</g>
<g>
</g>
<g>
</g>
<g>
</g>
<g>
</g>
<g>
</g>
<g>
</g>
<g>
</g>
<g>
</g>
<g>
</g>
<g>
</g>
<g>
</g>
<g>
</g>
<g>
</g>
<g>
</g>
<g>
</g>
</svg>
