<?xml version="1.0" encoding="iso-8859-1"?>
<!-- Generator: Adobe Illustrator 19.0.0, SVG Export Plug-In . SVG Version: 6.00 Build 0)  -->
<svg version="1.1" id="Capa_1" xmlns="http://www.w3.org/2000/svg" xmlns:xlink="http://www.w3.org/1999/xlink" x="0px" y="0px"
	 viewBox="0 0 512 512" style="enable-background:new 0 0 512 512;" xml:space="preserve">
<circle style="fill:#FFAA20;" cx="256" cy="256" r="256"/>
<path style="fill:#E67500;" d="M512,256c0-9.605-0.547-19.082-1.578-28.413l-95.43-95.43h-45.935l-25.681-16.906l-66.843-67.149
	c-5.07-5.59-12.392-9.102-20.534-9.102c-15.304,0-27.711,12.407-27.711,27.711c0,2.931,0.459,5.754,1.302,8.406l-86.648,57.04
	H97.008V421l77.869,77.868C200.37,507.38,227.644,512,256,512C397.385,512,512,397.385,512,256z"/>
<polygon style="fill:#FFFFFF;" points="376.879,155.265 255.999,75.69 135.121,155.265 126.873,142.735 255.999,57.732 
	385.127,142.735 "/>
<polygon style="fill:#FFF5CB;" points="385.13,142.74 376.88,155.26 341.79,132.16 274.15,87.64 256,75.69 256,57.73 282.41,75.11 
	369.06,132.16 "/>
<rect x="97.01" y="195" style="fill:#FFFFFF;" width="317.98" height="226"/>
<rect x="256" y="195" style="fill:#FFF5CB;" width="158.99" height="226"/>
<rect x="97.01" y="132.16" style="fill:#6D76E7;" width="317.98" height="67.843"/>
<rect x="256" y="132.16" style="fill:#1C2EDE;" width="158.99" height="67.84"/>
<circle style="fill:#54FBFF;" cx="256" cy="66.71" r="27.711"/>
<path style="fill:#00B7BE;" d="M283.71,66.71c0,15.31-12.41,27.71-27.71,27.71V39C271.3,39,283.71,51.41,283.71,66.71z"/>
<g>
	<rect x="138.92" y="225.61" style="fill:#FFEC97;" width="45.47" height="45.47"/>
	<rect x="201.82" y="225.61" style="fill:#FFEC97;" width="45.47" height="45.47"/>
</g>
<g>
	<rect x="264.72" y="225.61" style="fill:#FFCF00;" width="45.47" height="45.47"/>
	<rect x="327.61" y="225.61" style="fill:#FFCF00;" width="45.47" height="45.47"/>
</g>
<g>
	<rect x="138.92" y="284.15" style="fill:#FFEC97;" width="45.47" height="45.47"/>
	<rect x="201.82" y="284.15" style="fill:#FFEC97;" width="45.47" height="45.47"/>
</g>
<rect x="264.72" y="284.15" style="fill:#FF127F;" width="45.47" height="45.47"/>
<rect x="327.61" y="284.15" style="fill:#FFCF00;" width="45.47" height="45.47"/>
<g>
	<rect x="138.92" y="342.69" style="fill:#FFEC97;" width="45.47" height="45.47"/>
	<rect x="201.82" y="342.69" style="fill:#FFEC97;" width="45.47" height="45.47"/>
</g>
<g>
	<rect x="264.72" y="342.69" style="fill:#FFCF00;" width="45.47" height="45.47"/>
	<rect x="327.61" y="342.69" style="fill:#FFCF00;" width="45.47" height="45.47"/>
</g>
<g>
</g>
<g>
</g>
<g>
</g>
<g>
</g>
<g>
</g>
<g>
</g>
<g>
</g>
<g>
</g>
<g>
</g>
<g>
</g>
<g>
</g>
<g>
</g>
<g>
</g>
<g>
</g>
<g>
</g>
</svg>
