<?xml version="1.0" encoding="iso-8859-1"?>
<!-- Generator: Adobe Illustrator 19.0.0, SVG Export Plug-In . SVG Version: 6.00 Build 0)  -->
<svg version="1.1" id="Capa_1" xmlns="http://www.w3.org/2000/svg" xmlns:xlink="http://www.w3.org/1999/xlink" x="0px" y="0px"
	 viewBox="0 0 512 512" style="enable-background:new 0 0 512 512;" xml:space="preserve">
<circle style="fill:#6D76E7;" cx="256" cy="256" r="256"/>
<path style="fill:#1C2EDE;" d="M512,256c0-15.287-1.346-30.258-3.914-44.808L369.315,72.421l-12.4,12.4l-5.189-5.188
	L128.519,302.841l5.189,5.189l-11.01,11.01l7.691,20.34l-33.704,56.949L207.807,507.45c15.61,2.974,31.717,4.55,48.193,4.55
	C397.385,512,512,397.385,512,256z"/>
<polygon style="fill:#FFDB2D;" points="439.578,142.685 369.315,72.422 122.698,319.039 130.389,339.379 96.685,396.328 
	115.672,415.315 172.621,381.611 192.961,389.302 "/>
<polygon style="fill:#FDC000;" points="439.577,142.681 192.96,389.298 172.616,381.612 115.673,415.32 106.177,405.823 
	404.448,107.552 "/>
<rect x="223.431" y="73.72" transform="matrix(-0.7071 -0.7071 0.7071 -0.7071 315.0291 593.5856)" style="fill:#FFEC97;" width="114.039" height="315.657"/>
<rect x="142.767" y="223.207" transform="matrix(-0.7071 0.7071 -0.7071 -0.7071 691.1393 217.1546)" style="fill:#FFE670;" width="315.657" height="57.019"/>
<g>
	
		<rect x="130.001" y="318.706" transform="matrix(-0.7071 -0.7071 0.7071 -0.7071 89.4727 687.0076)" style="fill:#78777F;" width="114.039" height="12.535"/>
	<path style="fill:#78777F;" d="M246.711,319.839l124.385-124.385c-7.908-7.908-7.712-20.927,0.438-29.077l-25.911-25.911
		c-8.15,8.15-21.169,8.347-29.077,0.438L192.161,265.289c7.908,7.908,7.712,20.926-0.438,29.077l25.911,25.911
		C225.785,312.126,238.803,311.93,246.711,319.839z"/>
</g>
<path style="fill:#3C3B41;" d="M371.094,195.452L246.707,319.839c-7.905-7.906-20.923-7.715-29.076,0.438l-12.954-12.954
	l153.902-153.902l12.954,12.954C363.38,174.529,363.189,187.547,371.094,195.452z"/>
<rect x="316.847" y="131.863" transform="matrix(-0.7071 -0.7071 0.7071 -0.7071 540.5569 500.167)" style="fill:#78777F;" width="114.039" height="12.535"/>
<g>
	
		<rect x="387.753" y="129.779" transform="matrix(-0.7071 0.7071 -0.7071 -0.7071 784.5651 -8.401)" style="fill:#3C3B41;" width="12.54" height="57.019"/>
	
		<rect x="200.906" y="316.632" transform="matrix(-0.7071 0.7071 -0.7071 -0.7071 597.7225 442.6982)" style="fill:#3C3B41;" width="12.54" height="57.019"/>
</g>
<g>
</g>
<g>
</g>
<g>
</g>
<g>
</g>
<g>
</g>
<g>
</g>
<g>
</g>
<g>
</g>
<g>
</g>
<g>
</g>
<g>
</g>
<g>
</g>
<g>
</g>
<g>
</g>
<g>
</g>
</svg>
