<?xml version="1.0" encoding="iso-8859-1"?>
<!-- Generator: Adobe Illustrator 19.0.0, SVG Export Plug-In . SVG Version: 6.00 Build 0)  -->
<svg version="1.1" id="Capa_1" xmlns="http://www.w3.org/2000/svg" xmlns:xlink="http://www.w3.org/1999/xlink" x="0px" y="0px"
	 viewBox="0 0 512 512" style="enable-background:new 0 0 512 512;" xml:space="preserve">
<circle style="fill:#FFEC97;" cx="256" cy="256" r="256"/>
<path style="fill:#FDC000;" d="M512,256c0-15.355-1.355-30.393-3.947-45.005l-149.17-149.17L234.872,88.719L38.192,285.398
	l226.441,226.441C402.02,507.284,512,394.494,512,256z"/>
<path style="fill:#6D76E7;" d="M438.415,141.357l-79.532-79.532L234.872,88.719L38.192,285.398l176.649,176.649L411.52,265.368
	L438.415,141.357z M349.101,151.139c-10.031-10.031-10.031-26.296,0-36.327c10.031-10.032,26.296-10.032,36.327,0
	c10.031,10.031,10.031,26.296,0,36.327S359.133,161.17,349.101,151.139z"/>
<path style="fill:#1C2EDE;" d="M438.42,141.356l-39.768-39.768l-13.223,13.223c10.034,10.034,10.034,26.297,0,36.331
	c-10.027,10.027-26.297,10.034-36.331,0L126.515,373.725l88.325,88.325l196.682-196.682L438.42,141.356z"/>
<polygon style="fill:#54FBFF;" points="330.577,169.663 309.761,225.878 346.93,272.91 287.033,270.484 253.789,320.368 
	237.587,262.653 179.872,246.451 229.756,213.207 227.33,153.31 274.362,190.479 "/>
<polygon style="fill:#00D9E0;" points="287.035,270.48 253.794,320.367 237.587,262.653 330.579,169.661 309.762,225.876 
	346.927,272.913 "/>
<rect x="131.395" y="294.002" transform="matrix(-0.7071 -0.7071 0.7071 -0.7071 118.444 658.3939)" style="fill:#FFFFFF;" width="128.369" height="21.329"/>
<rect x="207.607" y="295.257" transform="matrix(-0.7071 0.7071 -0.7071 -0.7071 604.0819 404.4749)" style="fill:#FFF5CB;" width="21.33" height="64.179"/>
<rect x="102.774" y="322.619" transform="matrix(-0.7071 -0.7071 0.7071 -0.7071 49.3489 687.0077)" style="fill:#FFFFFF;" width="128.369" height="21.329"/>
<rect x="178.977" y="323.886" transform="matrix(-0.7071 0.7071 -0.7071 -0.7071 575.4509 473.5914)" style="fill:#FFF5CB;" width="21.33" height="64.179"/>
<g>
</g>
<g>
</g>
<g>
</g>
<g>
</g>
<g>
</g>
<g>
</g>
<g>
</g>
<g>
</g>
<g>
</g>
<g>
</g>
<g>
</g>
<g>
</g>
<g>
</g>
<g>
</g>
<g>
</g>
</svg>
