<?xml version="1.0" encoding="iso-8859-1"?>
<!-- Generator: Adobe Illustrator 19.0.0, SVG Export Plug-In . SVG Version: 6.00 Build 0)  -->
<svg version="1.1" id="Capa_1" xmlns="http://www.w3.org/2000/svg" xmlns:xlink="http://www.w3.org/1999/xlink" x="0px" y="0px"
	 viewBox="0 0 512 512" style="enable-background:new 0 0 512 512;" xml:space="preserve">
<circle style="fill:#FF127F;" cx="256" cy="256" r="256"/>
<path style="fill:#B10853;" d="M512,256c0-5.976-0.222-11.899-0.625-17.772l-94.715-94.715H278.833l-38.436-38.495H95.34V395.69
	l111.594,111.594C222.816,510.366,239.216,512,256,512C397.385,512,512,397.385,512,256z"/>
<polygon style="fill:#FFDF47;" points="240.397,143.512 240.397,105.017 95.34,105.017 95.34,177.114 416.66,177.114 
	416.66,143.512 "/>
<rect x="256" y="143.51" style="fill:#FEC000;" width="160.66" height="33.6"/>
<rect x="95.34" y="171.57" style="fill:#FFEC97;" width="321.32" height="224.12"/>
<g>
	<rect x="256" y="171.57" style="fill:#FFDF47;" width="160.66" height="224.12"/>
	<rect x="149" y="213.05" style="fill:#FFDF47;" width="214.01" height="134.41"/>
</g>
<rect x="256" y="213.05" style="fill:#FEC000;" width="107" height="134.41"/>
<rect x="179.88" y="241.23" style="fill:#FFAA20;" width="152.23" height="25.354"/>
<rect x="256" y="241.23" style="fill:#E67500;" width="76.12" height="25.35"/>
<rect x="179.88" y="293.93" style="fill:#FFAA20;" width="152.23" height="25.354"/>
<rect x="256" y="293.93" style="fill:#E67500;" width="76.12" height="25.35"/>
<g>
</g>
<g>
</g>
<g>
</g>
<g>
</g>
<g>
</g>
<g>
</g>
<g>
</g>
<g>
</g>
<g>
</g>
<g>
</g>
<g>
</g>
<g>
</g>
<g>
</g>
<g>
</g>
<g>
</g>
</svg>
