<?xml version="1.0" encoding="iso-8859-1"?>
<!-- Generator: Adobe Illustrator 19.0.0, SVG Export Plug-In . SVG Version: 6.00 Build 0)  -->
<svg version="1.1" id="Capa_1" xmlns="http://www.w3.org/2000/svg" xmlns:xlink="http://www.w3.org/1999/xlink" x="0px" y="0px"
	 viewBox="0 0 512 512" style="enable-background:new 0 0 512 512;" xml:space="preserve">
<circle style="fill:#54FBFF;" cx="256" cy="256" r="256"/>
<path style="fill:#00B7BE;" d="M512,256c0-17.05-1.682-33.705-4.862-49.822L361.502,60.542H150.498v380.917l67.767,67.767
	C230.581,511.045,243.178,512,256,512C397.385,512,512,397.385,512,256z"/>
<polygon style="fill:#FF328E;" points="361.502,441.458 256,358.524 150.498,441.458 150.498,295.774 361.502,295.774 "/>
<polygon style="fill:#B10853;" points="361.5,295.77 361.5,441.46 256,358.52 256,295.77 "/>
<polygon style="fill:#6D76E7;" points="361.502,397.688 256,314.754 150.498,397.688 150.498,60.542 361.502,60.542 "/>
<polygon style="fill:#283EE1;" points="361.5,60.54 361.5,397.69 256,314.75 256,60.54 "/>
<polygon style="fill:#FFEC97;" points="256,113.665 281.253,168.618 341.32,175.654 296.86,216.653 308.731,275.954 256,246.339 
	203.269,275.954 215.14,216.653 170.68,175.654 230.747,168.618 "/>
<polygon style="fill:#FFCF00;" points="296.859,216.649 308.734,275.95 256,246.34 256,113.663 281.252,168.616 341.32,175.658 "/>
<g>
</g>
<g>
</g>
<g>
</g>
<g>
</g>
<g>
</g>
<g>
</g>
<g>
</g>
<g>
</g>
<g>
</g>
<g>
</g>
<g>
</g>
<g>
</g>
<g>
</g>
<g>
</g>
<g>
</g>
</svg>
