<?xml version="1.0" encoding="iso-8859-1"?>
<!-- Generator: Adobe Illustrator 19.0.0, SVG Export Plug-In . SVG Version: 6.00 Build 0)  -->
<svg version="1.1" id="Capa_1" xmlns="http://www.w3.org/2000/svg" xmlns:xlink="http://www.w3.org/1999/xlink" x="0px" y="0px"
	 viewBox="0 0 512 512" style="enable-background:new 0 0 512 512;" xml:space="preserve">
<circle style="fill:#6D76E7;" cx="256" cy="256" r="256"/>
<path style="fill:#1C2EDE;" d="M512,256c0-23.393-3.155-46.046-9.033-67.575L392.563,78.02H119.438v355.96l68.988,68.987
	C209.954,508.845,232.607,512,256,512C397.385,512,512,397.385,512,256z"/>
<rect x="119.44" y="78.02" style="fill:#FFEC97;" width="273.12" height="355.96"/>
<rect x="256" y="78.02" style="fill:#FFE047;" width="136.56" height="355.96"/>
<polygon style="fill:#FFCF00;" points="119.438,78.02 145.649,197.486 366.351,197.486 392.563,78.02 "/>
<polygon style="fill:#FFAA20;" points="392.56,78.02 366.35,197.49 256,197.49 256,78.02 "/>
<path style="fill:#FFFFFF;" d="M276.957,242.532h-41.915V152.44h41.915V242.532z M242.697,234.878h26.607v-74.784h-26.607
	L242.697,234.878L242.697,234.878z"/>
<path style="fill:#FFF5CB;" d="M256,152.44v7.65h13.3v74.79H256v7.65h20.96v-90.09H256z"/>
<polygon style="fill:#FFDB2D;" points="392.563,433.98 366.351,314.514 145.649,314.514 119.438,433.98 "/>
<circle style="fill:#FF127F;" cx="256" cy="157.46" r="28.728"/>
<path style="fill:#B10853;" d="M284.73,157.46c0,7.6-2.94,14.51-7.77,19.65c-2.19,2.34-4.78,4.32-7.66,5.82
	c-3.97,2.09-8.5,3.26-13.3,3.26v-57.45C271.87,128.74,284.73,141.6,284.73,157.46z"/>
<circle style="fill:#FFFFFF;" cx="256" cy="157.46" r="12.134"/>
<path style="fill:#FFF5CB;" d="M268.13,157.46c0,0.9-0.1,1.78-0.29,2.63c-1.19,5.44-6.04,9.51-11.84,9.51v-24.27
	c4.91,0,9.14,2.91,11.04,7.11C267.74,153.97,268.13,155.67,268.13,157.46z"/>
<circle style="fill:#FF127F;" cx="256" cy="237.51" r="28.728"/>
<path style="fill:#B10853;" d="M284.73,237.51c0,15.86-12.86,28.73-28.73,28.73v-57.46c4.8,0,9.33,1.18,13.3,3.26
	c2.88,1.5,5.47,3.48,7.66,5.82C281.79,223,284.73,229.92,284.73,237.51z"/>
<circle style="fill:#FFFFFF;" cx="256" cy="237.51" r="12.134"/>
<path style="fill:#FFF5CB;" d="M268.13,237.51c0,1.79-0.39,3.49-1.09,5.02c-1.9,4.2-6.13,7.11-11.04,7.11v-24.27
	c5.8,0,10.64,4.07,11.84,9.51C268.03,235.73,268.13,236.61,268.13,237.51z"/>
<polygon style="fill:#FDC000;" points="392.56,433.98 256,433.98 256,314.51 366.35,314.51 "/>
<g>
</g>
<g>
</g>
<g>
</g>
<g>
</g>
<g>
</g>
<g>
</g>
<g>
</g>
<g>
</g>
<g>
</g>
<g>
</g>
<g>
</g>
<g>
</g>
<g>
</g>
<g>
</g>
<g>
</g>
</svg>
