<?xml version="1.0" encoding="iso-8859-1"?>
<!-- Generator: Adobe Illustrator 19.0.0, SVG Export Plug-In . SVG Version: 6.00 Build 0)  -->
<svg version="1.1" id="Capa_1" xmlns="http://www.w3.org/2000/svg" xmlns:xlink="http://www.w3.org/1999/xlink" x="0px" y="0px"
	 viewBox="0 0 512 512" style="enable-background:new 0 0 512 512;" xml:space="preserve">
<circle style="fill:#54FBFF;" cx="256" cy="256" r="256"/>
<path style="fill:#00B7BE;" d="M512,256c0-3.39-0.086-6.76-0.217-10.118L392.768,126.867c-34.395-36.398-83.045-59.2-136.768-59.2
	l0,0c-103.583,0-188.333,84.75-188.333,188.333l0,0c0,53.723,22.803,102.373,59.201,136.768l119.015,119.015
	C249.24,511.914,252.61,512,256,512C397.385,512,512,397.385,512,256z"/>
<path style="fill:#FFFFFF;" d="M320.6,322.038L320.6,322.038c15.359-15.359,40.261-15.359,55.621,0l1.014,1.014
	c21.704,21.704,58.892,10.115,64.365-20.088c1.796-9.909,2.734-20.108,2.734-30.515V256c0-103.583-84.75-188.333-188.333-188.333
	l0,0c-103.583,0-188.333,84.75-188.333,188.333l0,0c0,103.583,84.75,188.333,188.333,188.333h16.449
	c9.193,0,18.224-0.732,27.036-2.14c30.78-4.919,43.156-42.494,21.115-64.535l0,0C305.241,362.299,305.241,337.397,320.6,322.038z"/>
<path style="fill:#FFF5CB;" d="M444.33,256v16.45c0,10.41-0.93,20.6-2.73,30.51c-5.47,30.21-42.66,41.8-64.37,20.09l-1.01-1.01
	c-15.36-15.36-40.26-15.36-55.62,0c-7.68,7.68-11.52,17.74-11.52,27.81s3.84,20.13,11.52,27.81c22.04,22.04,9.67,59.61-21.12,64.53
	c-8.81,1.41-17.84,2.14-27.03,2.14H256V67.67C359.58,67.67,444.33,152.42,444.33,256z"/>
<circle style="fill:#3A4DE3;" cx="377.97" cy="226.9" r="35.06"/>
<circle style="fill:#E80C6A;" cx="300.98" cy="137.79" r="35.06"/>
<circle style="fill:#FFAA20;" cx="173.16" cy="165.87" r="35.06"/>
<circle style="fill:#FFEC97;" cx="132.71" cy="286.56" r="35.06"/>
<circle style="fill:#57555C;" cx="213.98" cy="371.62" r="35.06"/>
<g>
</g>
<g>
</g>
<g>
</g>
<g>
</g>
<g>
</g>
<g>
</g>
<g>
</g>
<g>
</g>
<g>
</g>
<g>
</g>
<g>
</g>
<g>
</g>
<g>
</g>
<g>
</g>
<g>
</g>
</svg>
