<?xml version="1.0" encoding="iso-8859-1"?>
<!-- Generator: Adobe Illustrator 19.0.0, SVG Export Plug-In . SVG Version: 6.00 Build 0)  -->
<svg version="1.1" id="Capa_1" xmlns="http://www.w3.org/2000/svg" xmlns:xlink="http://www.w3.org/1999/xlink" x="0px" y="0px"
	 viewBox="0 0 512 512" style="enable-background:new 0 0 512 512;" xml:space="preserve">
<circle style="fill:#FF127F;" cx="256" cy="256" r="256"/>
<path style="fill:#B10853;" d="M500.893,330.773L238.35,68.23c-20.698-20.698-54.256-20.698-74.953,0l-20.742,20.742l-7.866-7.866
	l-43.772,43.772l7.258,7.259l7.258,7.258l6.053,6.053c-15.98,19.082-15.014,47.547,2.921,65.481l152.428,152.428
	c0.168,0.168,0.344,0.324,0.513,0.489v2.271h-18.706c-19.826,0-35.898,16.072-35.898,35.898v29.961l77.696,77.696
	C390.5,496.189,472.151,425.025,500.893,330.773z"/>
<rect x="236.411" y="182.733" transform="matrix(-0.772 -0.6356 0.6356 -0.772 399.0741 530.9432)" style="fill:#FFEC97;" width="116.698" height="22.333"/>
<rect x="251.256" y="302.648" transform="matrix(-0.386 0.9225 -0.9225 -0.386 718.6069 149.335)" style="fill:#FDC000;" width="116.7" height="22.333"/>
<rect x="267.45" y="342.48" style="fill:#FFFFFF;" width="58.5" height="28"/>
<rect x="296.7" y="342.47" style="fill:#FFF5CB;" width="29.25" height="28"/>
<path style="fill:#00D9E0;" d="M235.286,183.96l-93.81-93.81l21.92-21.92c20.698-20.698,54.256-20.698,74.953,0l18.856,18.856
	c20.698,20.698,20.698,54.255,0,74.953L235.286,183.96z"/>
<path style="fill:#00B7BE;" d="M257.208,162.042l-21.92,21.92l-46.909-46.91l59.397-59.397l9.433,9.433
	C277.905,107.785,277.905,141.344,257.208,162.042z"/>
<path style="fill:#FFFFFF;" d="M114.507,142.241c-18.968,18.968-18.968,49.721,0,68.688c18.968,18.968,49.721,18.968,68.688,0
	c0.472-0.472,0.924-0.958,1.373-1.444l-68.617-68.617C115.465,141.317,114.98,141.768,114.507,142.241z"/>
<path style="fill:#FFF5CB;" d="M183.195,210.924c-1.032,1.032-2.1,2.015-3.203,2.935c-19.078,15.981-47.546,15.005-65.485-2.935
	l35.751-35.751l34.309,34.309C184.121,209.969,183.662,210.457,183.195,210.924z"/>
<rect x="90.226" y="126.805" transform="matrix(-0.7071 -0.7071 0.7071 -0.7071 174.6969 387.8741)" style="fill:#54FBFF;" width="154.909" height="61.902"/>
<g>
	
		<rect x="164.098" y="146.417" transform="matrix(-0.7071 0.7071 -0.7071 -0.7071 463.8943 178.141)" style="fill:#00D9E0;" width="61.909" height="77.459"/>
	<circle style="fill:#00D9E0;" cx="344.21" cy="234.42" r="32"/>
</g>
<circle style="fill:#FFF5CB;" cx="344.21" cy="234.42" r="16.938"/>
<path style="fill:#54FBFF;" d="M380.553,431.976H212.845v-29.961c0-19.826,16.072-35.898,35.898-35.898h95.912
	c19.826,0,35.898,16.072,35.898,35.898V431.976z"/>
<path style="fill:#00D9E0;" d="M380.552,402.013v29.96h-83.85v-65.86h47.95C364.482,366.113,380.552,382.193,380.552,402.013z"/>
<g>
</g>
<g>
</g>
<g>
</g>
<g>
</g>
<g>
</g>
<g>
</g>
<g>
</g>
<g>
</g>
<g>
</g>
<g>
</g>
<g>
</g>
<g>
</g>
<g>
</g>
<g>
</g>
<g>
</g>
</svg>
