<?xml version="1.0" encoding="iso-8859-1"?>
<!-- Generator: Adobe Illustrator 19.0.0, SVG Export Plug-In . SVG Version: 6.00 Build 0)  -->
<svg version="1.1" id="Capa_1" xmlns="http://www.w3.org/2000/svg" xmlns:xlink="http://www.w3.org/1999/xlink" x="0px" y="0px"
	 viewBox="0 0 512 512" style="enable-background:new 0 0 512 512;" xml:space="preserve">
<circle style="fill:#FFAA20;" cx="256" cy="256" r="256"/>
<path style="fill:#E67500;" d="M512,256c0-12.661-0.935-25.103-2.71-37.271L394.434,103.872h-27.558L320.6,57.793H191.401v46.079
	h-73.834v72.55L133.45,191.5V430l78.154,78.154C226.024,510.676,240.857,512,256,512C397.385,512,512,397.385,512,256z"/>
<polygon style="fill:#6D76E7;" points="191.401,57.792 191.401,110.081 214.592,110.081 214.592,75.44 297.408,75.44 
	297.408,110.081 320.599,110.081 320.599,57.792 "/>
<polygon style="fill:#1C2EDE;" points="320.6,57.79 320.6,110.08 297.41,110.08 297.41,75.44 256,75.44 256,57.79 "/>
<rect x="133.45" y="165.15" style="fill:#6D76E7;" width="245.1" height="264.85"/>
<rect x="256" y="165.15" style="fill:#1C2EDE;" width="122.55" height="264.85"/>
<rect x="117.57" y="103.87" style="fill:#54FBFF;" width="276.87" height="72.55"/>
<rect x="256" y="103.87" style="fill:#00B7BE;" width="138.43" height="72.55"/>
<g>
	<path style="fill:#54FBFF;" d="M191.551,382.798h-1.2c-10.129,0-18.34-8.211-18.34-18.34V235.105c0-10.129,8.211-18.34,18.34-18.34
		h1.2c10.129,0,18.34,8.211,18.34,18.34v129.353C209.891,374.587,201.68,382.798,191.551,382.798z"/>
	<path style="fill:#54FBFF;" d="M256.6,382.798h-1.2c-10.129,0-18.34-8.211-18.34-18.34V235.105c0-10.129,8.211-18.34,18.34-18.34
		h1.2c10.129,0,18.34,8.211,18.34,18.34v129.353C274.94,374.587,266.729,382.798,256.6,382.798z"/>
</g>
<g>
	<path style="fill:#00B7BE;" d="M274.94,235.1v129.36c0,10.13-8.21,18.34-18.34,18.34H256V216.77h0.6
		C266.73,216.77,274.94,224.98,274.94,235.1z"/>
	<path style="fill:#00B7BE;" d="M321.649,382.798h-1.2c-10.129,0-18.34-8.211-18.34-18.34V235.105c0-10.129,8.211-18.34,18.34-18.34
		h1.2c10.129,0,18.34,8.211,18.34,18.34v129.353C339.988,374.587,331.777,382.798,321.649,382.798z"/>
</g>
<g>
</g>
<g>
</g>
<g>
</g>
<g>
</g>
<g>
</g>
<g>
</g>
<g>
</g>
<g>
</g>
<g>
</g>
<g>
</g>
<g>
</g>
<g>
</g>
<g>
</g>
<g>
</g>
<g>
</g>
</svg>
