<?xml version="1.0" encoding="iso-8859-1"?>
<!-- Generator: Adobe Illustrator 19.0.0, SVG Export Plug-In . SVG Version: 6.00 Build 0)  -->
<svg version="1.1" id="Capa_1" xmlns="http://www.w3.org/2000/svg" xmlns:xlink="http://www.w3.org/1999/xlink" x="0px" y="0px"
	 viewBox="0 0 512 512" style="enable-background:new 0 0 512 512;" xml:space="preserve">
<circle style="fill:#FF127F;" cx="256" cy="256" r="256"/>
<path style="fill:#B10853;" d="M512,256c0-23.37-3.149-46.001-9.016-67.512l-108.69-108.69h-24.471l-13.008-12.96
	c-1.356-1.767-3.489-2.907-5.889-2.907l0,0c-4.097,0-7.419,3.321-7.419,7.419v8.448h-11.655l-13.647-13.689
	c-1.343-1.345-3.199-2.177-5.25-2.177l0,0c-4.097,0-7.419,3.321-7.419,7.419v8.448h-11.655l-13.282-13.295
	c-1.36-1.575-3.371-2.571-5.616-2.571c-4.097,0-7.418,3.321-7.418,7.419V79.8H255.91l-13.326-13.346
	c-1.359-1.545-3.351-2.52-5.571-2.52c-4.097,0-7.419,3.321-7.419,7.419v8.448h-11.655l-13.204-13.204
	c-1.361-1.627-3.406-2.662-5.693-2.662c-4.097,0-7.419,3.321-7.419,7.419v8.448h-11.655L166.764,66.59
	c-1.361-1.625-3.405-2.658-5.69-2.658c-4.097,0-7.419,3.321-7.419,7.419v8.448h-35.95V428l76.465,76.465
	C213.973,509.377,234.679,512,256,512C397.385,512,512,397.385,512,256z"/>
<rect x="117.71" y="79.8" style="fill:#54FBFF;" width="276.59" height="348.2"/>
<rect x="256" y="79.8" style="fill:#00D9E0;" width="138.29" height="348.2"/>
<rect x="134.39" y="79.8" style="fill:#FFFFFF;" width="243.23" height="330.97"/>
<rect x="256" y="79.8" style="fill:#FFF5CB;" width="121.61" height="330.97"/>
<rect x="134.39" y="389.79" style="fill:#FFEC97;" width="243.23" height="20.985"/>
<rect x="256" y="389.79" style="fill:#FFCF00;" width="121.61" height="20.98"/>
<g>
	<path style="fill:#54FBFF;" d="M161.074,100.308L161.074,100.308c-4.097,0-7.419-3.321-7.419-7.419V71.351
		c0-4.097,3.322-7.419,7.419-7.419l0,0c4.097,0,7.419,3.321,7.419,7.419V92.89C168.492,96.987,165.171,100.308,161.074,100.308z"/>
	<path style="fill:#54FBFF;" d="M199.044,100.308L199.044,100.308c-4.097,0-7.419-3.321-7.419-7.419V71.351
		c0-4.097,3.321-7.419,7.419-7.419l0,0c4.097,0,7.419,3.321,7.419,7.419V92.89C206.463,96.987,203.141,100.308,199.044,100.308z"/>
	<path style="fill:#54FBFF;" d="M237.015,100.308L237.015,100.308c-4.097,0-7.419-3.321-7.419-7.419V71.351
		c0-4.097,3.321-7.419,7.419-7.419l0,0c4.097,0,7.419,3.321,7.419,7.419V92.89C244.433,96.987,241.112,100.308,237.015,100.308z"/>
</g>
<g>
	<path style="fill:#00D9E0;" d="M274.985,100.308L274.985,100.308c-4.097,0-7.419-3.321-7.419-7.419V71.351
		c0-4.097,3.322-7.419,7.419-7.419l0,0c4.097,0,7.419,3.321,7.419,7.419V92.89C282.404,96.987,279.082,100.308,274.985,100.308z"/>
	<path style="fill:#00D9E0;" d="M312.956,100.308L312.956,100.308c-4.097,0-7.419-3.321-7.419-7.419V71.351
		c0-4.097,3.321-7.419,7.419-7.419l0,0c4.097,0,7.419,3.321,7.419,7.419V92.89C320.374,96.987,317.053,100.308,312.956,100.308z"/>
	<path style="fill:#00D9E0;" d="M350.926,100.308L350.926,100.308c-4.097,0-7.419-3.321-7.419-7.419V71.351
		c0-4.097,3.321-7.419,7.419-7.419l0,0c4.097,0,7.419,3.321,7.419,7.419V92.89C358.345,96.987,355.023,100.308,350.926,100.308z"/>
</g>
<rect x="164.78" y="137.97" style="fill:#6D76E7;" width="182.43" height="15.825"/>
<rect x="256" y="137.97" style="fill:#1C2EDE;" width="91.22" height="15.82"/>
<rect x="164.78" y="186.86" style="fill:#6D76E7;" width="182.43" height="15.825"/>
<rect x="256" y="186.86" style="fill:#1C2EDE;" width="91.22" height="15.82"/>
<rect x="164.78" y="235.75" style="fill:#6D76E7;" width="182.43" height="15.825"/>
<rect x="256" y="235.75" style="fill:#1C2EDE;" width="91.22" height="15.83"/>
<rect x="164.78" y="284.64" style="fill:#6D76E7;" width="182.43" height="15.825"/>
<rect x="256" y="284.65" style="fill:#1C2EDE;" width="91.22" height="15.82"/>
<rect x="164.78" y="333.54" style="fill:#6D76E7;" width="182.43" height="15.825"/>
<rect x="256" y="333.54" style="fill:#1C2EDE;" width="91.22" height="15.82"/>
<g>
</g>
<g>
</g>
<g>
</g>
<g>
</g>
<g>
</g>
<g>
</g>
<g>
</g>
<g>
</g>
<g>
</g>
<g>
</g>
<g>
</g>
<g>
</g>
<g>
</g>
<g>
</g>
<g>
</g>
</svg>
