<?xml version="1.0" encoding="iso-8859-1"?>
<!-- Generator: Adobe Illustrator 19.0.0, SVG Export Plug-In . SVG Version: 6.00 Build 0)  -->
<svg version="1.1" id="Capa_1" xmlns="http://www.w3.org/2000/svg" xmlns:xlink="http://www.w3.org/1999/xlink" x="0px" y="0px"
	 viewBox="0 0 512 512" style="enable-background:new 0 0 512 512;" xml:space="preserve">
<circle style="fill:#FFEC97;" cx="256" cy="256" r="256"/>
<path style="fill:#FDC000;" d="M512,256c0-30.251-5.262-59.27-14.896-86.21l-76.576-76.579c-3.268-3.367-7.839-5.461-12.903-5.461
	h-303.25c-9.94,0-17.999,8.058-17.999,17.999v211.71c0,5.064,2.094,9.635,5.462,12.903l72.46,71.744
	c-1.658,2.565-2.631,5.614-2.631,8.895v30.25l69.552,69.552C239.375,511.586,247.639,512,256,512C397.385,512,512,397.385,512,256z"
	/>
<rect x="200.17" y="332.42" style="fill:#E80C6A;" width="111.67" height="65.33"/>
<rect x="256" y="332.42" style="fill:#B10853;" width="55.83" height="65.33"/>
<path style="fill:#FF328E;" d="M407.625,335.457h-303.25c-9.94,0-17.999-8.058-17.999-17.999v-211.71
	c0-9.94,8.058-17.999,17.999-17.999h303.25c9.94,0,17.999,8.058,17.999,17.999v211.71
	C425.624,327.399,417.565,335.457,407.625,335.457z"/>
<path style="fill:#E80C6A;" d="M425.62,105.75v211.71c0,9.94-8.05,18-18,18H256V87.75h151.62
	C417.57,87.75,425.62,95.81,425.62,105.75z"/>
<rect x="106.54" y="109.42" style="fill:#54FBFF;" width="298.92" height="191.04"/>
<rect x="256" y="109.42" style="fill:#00D9E0;" width="149.46" height="191.04"/>
<path style="fill:#FF328E;" d="M350.333,441.25H161.667V411c0-9.067,7.35-16.417,16.417-16.417h155.833
	c9.067,0,16.417,7.35,16.417,16.417L350.333,441.25L350.333,441.25z"/>
<path style="fill:#E80C6A;" d="M350.33,411v30.25H256v-46.67h77.92C342.98,394.58,350.33,401.93,350.33,411z"/>
<g>
</g>
<g>
</g>
<g>
</g>
<g>
</g>
<g>
</g>
<g>
</g>
<g>
</g>
<g>
</g>
<g>
</g>
<g>
</g>
<g>
</g>
<g>
</g>
<g>
</g>
<g>
</g>
<g>
</g>
</svg>
