<?xml version="1.0" encoding="iso-8859-1"?>
<!-- Generator: Adobe Illustrator 19.0.0, SVG Export Plug-In . SVG Version: 6.00 Build 0)  -->
<svg version="1.1" id="Capa_1" xmlns="http://www.w3.org/2000/svg" xmlns:xlink="http://www.w3.org/1999/xlink" x="0px" y="0px"
	 viewBox="0 0 512 512" style="enable-background:new 0 0 512 512;" xml:space="preserve">
<circle style="fill:#54FBFF;" cx="256" cy="256" r="256"/>
<path style="fill:#00B7BE;" d="M512,256c0-16.429-1.566-32.49-4.524-48.059L376.525,76.99l-96.111,96.111l-4.587-4.587
	l-32.684,32.684c-25.907-23.097-65.993-22.234-90.831,2.604L83.07,273.044c-25.74,25.74-25.74,67.861,0,93.601l143.681,143.681
	c9.6,1.093,19.356,1.674,29.249,1.674C397.385,512,512,397.385,512,256z"/>
<rect x="316.006" y="86.181" transform="matrix(-0.7071 -0.7071 0.7071 -0.7071 500.7158 516.6536)" style="fill:#FFFFFF;" width="82.709" height="136.889"/>
<g>
	
		<rect x="303.534" y="148.578" transform="matrix(-0.7071 0.7071 -0.7071 -0.7071 754.687 25.9035)" style="fill:#FFF5CB;" width="136.889" height="41.35"/>
	
		<rect x="245.105" y="195.417" transform="matrix(-0.7071 -0.7071 0.7071 -0.7071 345.1939 581.0873)" style="fill:#FFF5CB;" width="95.679" height="47.27"/>
</g>
<rect x="286.218" y="212.056" transform="matrix(-0.7071 0.7071 -0.7071 -0.7071 695.8121 183.7371)" style="fill:#FFE670;" width="47.27" height="47.84"/>
<path style="fill:#FF127F;" d="M145.354,428.93L83.07,366.646c-25.74-25.74-25.74-67.861,0-93.601l69.243-69.243
	c25.74-25.74,67.861-25.74,93.601,0l62.285,62.285c25.74,25.74,25.74,67.861,0,93.601l-69.243,69.243
	C213.215,454.671,171.095,454.671,145.354,428.93z"/>
<path style="fill:#B10853;" d="M308.2,359.689l-69.24,69.24c-25.746,25.746-67.868,25.739-93.607,0l-31.141-31.141l162.847-162.847
	l31.141,31.141c0.905,0.905,1.768,1.824,2.609,2.765C333.904,294.755,333.034,334.855,308.2,359.689z"/>
<circle style="fill:#FFC473;" cx="195.63" cy="316.37" r="72.74"/>
<path style="fill:#FF9A00;" d="M247.071,367.799c-28.411,28.411-74.473,28.411-102.877,0.007l102.877-102.877
	C275.475,293.333,275.475,339.394,247.071,367.799z"/>
<path style="fill:#FFFFFF;" d="M215.456,344.648c13.183-17.366,14.133-62.238,14.133-62.238s-44.872,0.951-62.237,14.133
	c-18.14,13.77-17.196,38.947-4.019,52.123C176.509,361.844,201.686,362.788,215.456,344.648z"/>
<path style="fill:#FFF5CB;" d="M163.335,348.665l66.256-66.256c0,0-0.948,44.873-14.135,62.232
	C201.682,362.786,176.509,361.838,163.335,348.665z"/>
<g>
</g>
<g>
</g>
<g>
</g>
<g>
</g>
<g>
</g>
<g>
</g>
<g>
</g>
<g>
</g>
<g>
</g>
<g>
</g>
<g>
</g>
<g>
</g>
<g>
</g>
<g>
</g>
<g>
</g>
</svg>
