<?xml version="1.0" encoding="iso-8859-1"?>
<!-- Generator: Adobe Illustrator 19.0.0, SVG Export Plug-In . SVG Version: 6.00 Build 0)  -->
<svg version="1.1" id="Capa_1" xmlns="http://www.w3.org/2000/svg" xmlns:xlink="http://www.w3.org/1999/xlink" x="0px" y="0px"
	 viewBox="0 0 512 512" style="enable-background:new 0 0 512 512;" xml:space="preserve">
<circle style="fill:#FFAA20;" cx="256" cy="256" r="256"/>
<path style="fill:#E67500;" d="M512,256c0-10.994-0.695-21.826-2.04-32.455L344.527,58.112l-84.853,84.853L245.67,128.96
	L111.608,263.022c-38.586,38.586-38.586,101.146,0,139.732l0,0l106.683,106.475C230.599,511.046,243.188,512,256,512
	C397.385,512,512,397.385,512,256z"/>
<rect x="276.836" y="95.515" transform="matrix(-0.7071 -0.7071 0.7071 -0.7071 495.362 522.2135)" style="fill:#FFFFFF;" width="157.998" height="125.999"/>
<rect x="320.763" y="146.955" transform="matrix(-0.7071 0.7071 -0.7071 -0.7071 786.9673 46.9376)" style="fill:#FFF5CB;" width="125.999" height="78.999"/>
<path style="fill:#6D76E7;" d="M111.608,402.754L111.608,402.754c-38.586-38.586-38.586-101.146,0-139.732L245.67,128.96
	l139.732,139.732L251.34,402.754C212.754,441.34,150.194,441.34,111.608,402.754z"/>
<path style="fill:#1C2EDE;" d="M385.403,268.698l-134.06,134.06c-38.587,38.587-101.145,38.58-139.732-0.007l203.923-203.922
	L385.403,268.698z"/>
<rect x="312.864" y="118.604" transform="matrix(-0.7071 -0.7071 0.7071 -0.7071 467.0094 462.6493)" style="fill:#FFEC97;" width="32.917" height="32"/>
<rect x="306.21" y="134.666" transform="matrix(-0.7071 -0.7071 0.7071 -0.7071 450.9514 469.2886)" style="fill:#FFAA20;" width="32.917" height="13.167"/>
<rect x="363.304" y="169.036" transform="matrix(-0.7071 -0.7071 0.7071 -0.7071 517.4549 584.409)" style="fill:#FEC000;" width="32.917" height="32"/>
<rect x="356.65" y="185.108" transform="matrix(-0.7071 -0.7071 0.7071 -0.7071 501.3898 591.0654)" style="fill:#E67500;" width="32.917" height="13.167"/>
<rect x="262" y="122.2" transform="matrix(-0.7071 0.7071 -0.7071 -0.7071 657.0797 169.8464)" style="fill:#54FBFF;" width="62.726" height="197.618"/>
<rect x="296.925" y="206.531" transform="matrix(-0.7071 0.7071 -0.7071 -0.7071 741.3962 204.7743)" style="fill:#00D9E0;" width="62.726" height="98.809"/>
<g>
</g>
<g>
</g>
<g>
</g>
<g>
</g>
<g>
</g>
<g>
</g>
<g>
</g>
<g>
</g>
<g>
</g>
<g>
</g>
<g>
</g>
<g>
</g>
<g>
</g>
<g>
</g>
<g>
</g>
</svg>
