<?xml version="1.0" encoding="iso-8859-1"?>
<!-- Generator: Adobe Illustrator 19.0.0, SVG Export Plug-In . SVG Version: 6.00 Build 0)  -->
<svg version="1.1" id="Capa_1" xmlns="http://www.w3.org/2000/svg" xmlns:xlink="http://www.w3.org/1999/xlink" x="0px" y="0px"
	 viewBox="0 0 512 512" style="enable-background:new 0 0 512 512;" xml:space="preserve">
<circle style="fill:#6D76E7;" cx="256" cy="256" r="256"/>
<path style="fill:#1C2EDE;" d="M512,256c0-26.291-3.97-51.654-11.332-75.529l-66.393-66.393H77.725v283.844l102.746,102.746
	C204.346,508.03,229.709,512,256,512C397.385,512,512,397.385,512,256z"/>
<rect x="77.72" y="249" style="fill:#FFAA20;" width="356.55" height="148.92"/>
<rect x="256" y="249" style="fill:#FF8900;" width="178.28" height="148.92"/>
<path style="fill:#FFDB2D;" d="M395.25,360.775h-278.5c-21.553,0-39.025-17.472-39.025-39.025V114.078h356.551V321.75
	C434.275,343.303,416.803,360.775,395.25,360.775z"/>
<path style="fill:#FDC000;" d="M434.28,114.08v207.67c0,21.55-17.48,39.03-39.03,39.03H256v-246.7H434.28z"/>
<path style="fill:#57555C;" d="M184.783,114.078h-17.292c-19.472,39.741-50.837,72.143-89.767,92.896v17.584
	C125.252,201.411,163.058,162.459,184.783,114.078z"/>
<path style="fill:#2A2A2C;" d="M344.508,114.078h-17.292c21.725,48.381,59.532,87.333,107.059,110.48v-17.584
	C395.345,186.221,363.981,153.819,344.508,114.078z"/>
<g>
</g>
<g>
</g>
<g>
</g>
<g>
</g>
<g>
</g>
<g>
</g>
<g>
</g>
<g>
</g>
<g>
</g>
<g>
</g>
<g>
</g>
<g>
</g>
<g>
</g>
<g>
</g>
<g>
</g>
</svg>
