<?xml version="1.0" encoding="iso-8859-1"?>
<!-- Generator: Adobe Illustrator 19.0.0, SVG Export Plug-In . SVG Version: 6.00 Build 0)  -->
<svg version="1.1" id="Capa_1" xmlns="http://www.w3.org/2000/svg" xmlns:xlink="http://www.w3.org/1999/xlink" x="0px" y="0px"
	 viewBox="0 0 512 512" style="enable-background:new 0 0 512 512;" xml:space="preserve">
<circle style="fill:#FFEC97;" cx="256" cy="256" r="256"/>
<path style="fill:#FDC000;" d="M510.987,278.695L272.667,39.837C268.381,35.61,262.496,33,256,33l0,0
	c-13.111,0-23.74,10.628-23.74,23.739v56.38c-16.017,8.512-26.928,25.36-26.928,44.763c0,5.761,0.975,11.292,2.746,16.452
	l-82.847,196.102l2.832,29.65l4.389,1.854l-10.712,25.356l78.622,78.622C218.277,509.889,236.891,512,256,512
	C389.735,512,499.499,409.446,510.987,278.695z"/>
<path style="fill:#FFAA20;" d="M279.74,118.387h-47.48V56.739C232.26,43.629,242.889,33,256,33l0,0
	c13.111,0,23.74,10.629,23.74,23.739V118.387z"/>
<path style="fill:#E67500;" d="M279.74,56.74v61.65H256V33c6.56,0,12.49,2.66,16.79,6.95C277.08,44.25,279.74,50.18,279.74,56.74z"
	/>
<rect x="126.939" y="401.599" transform="matrix(-0.9212 -0.3892 0.3892 -0.9212 94.3103 851.7066)" style="fill:#6D76E7;" width="12.97" height="29.403"/>
<polygon style="fill:#FF127F;" points="147.814,408.43 128.064,400.086 125.232,370.436 223.217,138.502 256,152.352 "/>
<rect x="372.055" y="401.568" transform="matrix(0.9212 -0.3892 0.3892 0.9212 -132.1611 180.1399)" style="fill:#1C2EDE;" width="12.97" height="29.403"/>
<polygon style="fill:#B10853;" points="364.186,408.43 383.936,400.086 386.768,370.436 288.783,138.502 256,152.352 "/>
<circle style="fill:#6D76E7;" cx="256" cy="157.88" r="50.667"/>
<path style="fill:#1C2EDE;" d="M306.67,157.88c0,27.99-22.69,50.67-50.67,50.67V107.22c8.58,0,16.66,2.13,23.74,5.89
	C295.76,121.62,306.67,138.48,306.67,157.88z"/>
<circle style="fill:#54FBFF;" cx="256" cy="157.88" r="26.601"/>
<path style="fill:#00D9E0;" d="M282.6,157.88c0,14.69-11.91,26.6-26.6,26.6v-53.2C270.69,131.28,282.6,143.19,282.6,157.88z"/>
<g>
</g>
<g>
</g>
<g>
</g>
<g>
</g>
<g>
</g>
<g>
</g>
<g>
</g>
<g>
</g>
<g>
</g>
<g>
</g>
<g>
</g>
<g>
</g>
<g>
</g>
<g>
</g>
<g>
</g>
</svg>
