<?xml version="1.0" encoding="iso-8859-1"?>
<!-- Generator: Adobe Illustrator 19.0.0, SVG Export Plug-In . SVG Version: 6.00 Build 0)  -->
<svg version="1.1" id="Capa_1" xmlns="http://www.w3.org/2000/svg" xmlns:xlink="http://www.w3.org/1999/xlink" x="0px" y="0px"
	 viewBox="0 0 512 512" style="enable-background:new 0 0 512 512;" xml:space="preserve">
<circle style="fill:#FFC473;" cx="256" cy="256" r="256"/>
<path style="fill:#FF9A00;" d="M512,256c0-23.087-3.074-45.452-8.804-66.729l-94.183-94.183l-17.408-8.292l-0.878,1.876
	l-11.389-10.175H284.25l-28.23-27.166h-50.996v27.166h-72.322v21.44l-12.308-13.141l-17.408,8.292l29.716,67.587v269.857
	l74.874,74.874C223.259,510.409,239.442,512,256,512C397.385,512,512,397.385,512,256z"/>
<rect x="132.7" y="78.5" style="fill:#3A4DE3;" width="246.63" height="84.18"/>
<rect x="256" y="78.5" style="fill:#1C2EDE;" width="123.34" height="84.18"/>
<rect x="154.03" y="140.44" style="fill:#FF90C2;" width="50.996" height="260.39"/>
<rect x="179.53" y="140.44" style="fill:#FF53A1;" width="25.498" height="260.39"/>
<rect x="256.02" y="125.47" style="fill:#54FBFF;" width="50.996" height="260.39"/>
<rect x="281.52" y="125.47" style="fill:#00D9E0;" width="25.498" height="260.39"/>
<rect x="307.02" y="97.68" style="fill:#FFEC97;" width="50.995" height="260.39"/>
<rect x="332.51" y="97.68" style="fill:#FFDF47;" width="25.498" height="260.39"/>
<rect x="205.03" y="51.33" style="fill:#FFFFFF;" width="50.995" height="260.39"/>
<rect x="230.52" y="51.33" style="fill:#FFF5CB;" width="25.498" height="260.39"/>
<path style="fill:#6D76E7;" d="M391.605,86.797l-35.53,75.879h-200.15l-35.53-75.879l-17.408,8.292l29.716,67.587v269.857h246.635
	V162.675l29.676-67.587L391.605,86.797z M343.916,264.131c0,15.57-12.622,28.192-28.192,28.192H196.316
	c-15.57,0-28.192-12.622-28.192-28.192v-27.333c0-15.57,12.622-28.192,28.192-28.192h119.408c15.57,0,28.192,12.622,28.192,28.192
	V264.131z"/>
<g>
	<path style="fill:#3A4DE3;" d="M391.61,86.8L379.34,113l-23.27,49.68H256v45.93h59.72c15.57,0,28.2,12.62,28.2,28.19v27.33
		c0,15.57-12.63,28.19-28.2,28.19H256v140.21h123.34V162.68l29.67-67.59L391.61,86.8z"/>
	<rect x="168.12" y="337.62" style="fill:#3A4DE3;" width="175.79" height="48.24"/>
</g>
<rect x="256" y="337.62" style="fill:#1C2EDE;" width="87.92" height="48.24"/>
<g>
</g>
<g>
</g>
<g>
</g>
<g>
</g>
<g>
</g>
<g>
</g>
<g>
</g>
<g>
</g>
<g>
</g>
<g>
</g>
<g>
</g>
<g>
</g>
<g>
</g>
<g>
</g>
<g>
</g>
</svg>
