<?xml version="1.0" encoding="iso-8859-1"?>
<!-- Generator: Adobe Illustrator 19.0.0, SVG Export Plug-In . SVG Version: 6.00 Build 0)  -->
<svg version="1.1" id="Capa_1" xmlns="http://www.w3.org/2000/svg" xmlns:xlink="http://www.w3.org/1999/xlink" x="0px" y="0px"
	 viewBox="0 0 512 512" style="enable-background:new 0 0 512 512;" xml:space="preserve">
<circle style="fill:#54FBFF;" cx="256" cy="256" r="256"/>
<path style="fill:#00B7BE;" d="M512,256c0-10.137-0.608-20.13-1.754-29.959L331.004,46.8l-29.345,29.345l-3.535,3.536
	L140.623,258.656c-12.409,14.101-11.816,35.361,1.287,48.756l-12.735,12.735l-4.773-4.773l-48.555,54.211l139.127,139.127
	C228.334,510.865,242.034,512,256,512C397.385,512,512,397.385,512,256z"/>
<rect x="122.057" y="332.849" transform="matrix(-0.7071 -0.7071 0.7071 -0.7071 39.5287 707.5703)" style="fill:#FFEC97;" width="88.499" height="25.5"/>
<rect x="169.186" y="339.122" transform="matrix(-0.7071 0.7071 -0.7071 -0.7071 566.0242 488.0382)" style="fill:#FFDF47;" width="25.5" height="44.25"/>
<rect x="288.562" y="107.765" transform="matrix(-0.7071 -0.7071 0.7071 -0.7071 563.5997 490.4796)" style="fill:#FF127F;" width="189.638" height="41.5"/>
<rect x="396.152" y="114.646" transform="matrix(-0.7071 0.7071 -0.7071 -0.7071 826.286 -18.1477)" style="fill:#B10853;" width="41.5" height="94.819"/>
<path style="fill:#FFFFFF;" d="M302.72,75.084l-4.596,4.596L140.623,258.656c-12.498,14.202-11.813,35.669,1.563,49.046
	l62.013,62.013c13.377,13.377,34.844,14.061,49.046,1.564l178.976-157.501l4.596-4.596L302.72,75.084z"/>
<path style="fill:#FFF5CB;" d="M436.816,209.18l-4.596,4.596l-50.02,44.025l-91.436,80.462l-37.519,33.022
	c-14.1,12.402-35.363,11.816-48.762-1.287l-31.29-31.289l196.576-196.576L436.816,209.18z"/>
<polygon style="fill:#57555C;" points="124.402,315.374 75.848,369.585 142.316,436.053 196.527,387.499 "/>
<polygon style="fill:#2A2A2C;" points="196.527,387.499 142.314,436.056 109.08,402.822 160.465,351.436 "/>
<polygon style="fill:#FF127F;" points="254.102,129.704 173.638,221.14 290.761,338.263 382.197,257.799 "/>
<polygon style="fill:#B10853;" points="382.2,257.801 290.764,338.263 232.201,279.7 318.15,193.751 "/>
<circle style="fill:#FFEC97;" cx="275.18" cy="236.73" r="40"/>
<path style="fill:#FFDF47;" d="M303.456,265.014c-15.62,15.62-40.948,15.62-56.568,0l56.568-56.569
	C319.076,224.065,319.083,249.387,303.456,265.014z"/>
<g>
</g>
<g>
</g>
<g>
</g>
<g>
</g>
<g>
</g>
<g>
</g>
<g>
</g>
<g>
</g>
<g>
</g>
<g>
</g>
<g>
</g>
<g>
</g>
<g>
</g>
<g>
</g>
<g>
</g>
</svg>
