<?xml version="1.0" encoding="iso-8859-1"?>
<!-- Generator: Adobe Illustrator 19.0.0, SVG Export Plug-In . SVG Version: 6.00 Build 0)  -->
<svg version="1.1" id="Capa_1" xmlns="http://www.w3.org/2000/svg" xmlns:xlink="http://www.w3.org/1999/xlink" x="0px" y="0px"
	 viewBox="0 0 512 512" style="enable-background:new 0 0 512 512;" xml:space="preserve">
<circle style="fill:#FF127F;" cx="256" cy="256" r="256"/>
<path style="fill:#B10853;" d="M512,256c0-18.775-2.04-37.07-5.876-54.695L396.816,92.06c-5.947-6.718-14.63-10.956-24.308-10.956
	H107.026v349.792l68.031,68.031C200.499,507.4,227.711,512,256,512C397.385,512,512,397.385,512,256z"/>
<path style="fill:#1C2EDE;" d="M373.974,430.896H146.295V81.104h227.678c17.121,0,31,13.879,31,31v287.792
	C404.974,417.017,391.095,430.896,373.974,430.896z"/>
<path style="fill:#FFF5CB;" d="M361.755,430.896H134.077V81.104h227.678c17.121,0,31,13.879,31,31v287.792
	C392.755,417.017,378.876,430.896,361.755,430.896z"/>
<path style="fill:#6D76E7;" d="M344.65,430.896H116.971V81.104H344.65c17.121,0,31,13.879,31,31v287.792
	C375.65,417.017,361.771,430.896,344.65,430.896z"/>
<path style="fill:#3A4DE3;" d="M375.65,113.57v284.86c0,17.929-14.536,32.466-32.466,32.466h-83.783V81.104h83.783
	C361.114,81.104,375.65,95.64,375.65,113.57z"/>
<rect x="193.07" y="149.18" style="fill:#FFEC97;" width="136.84" height="85.88"/>
<rect x="259.4" y="149.18" style="fill:#FFDF47;" width="70.51" height="85.88"/>
<rect x="316.92" y="81.1" style="fill:#00D9E0;" width="21.731" height="349.79"/>
<rect x="107.03" y="81.1" style="fill:#FFEC97;" width="43.46" height="349.79"/>
<g>
</g>
<g>
</g>
<g>
</g>
<g>
</g>
<g>
</g>
<g>
</g>
<g>
</g>
<g>
</g>
<g>
</g>
<g>
</g>
<g>
</g>
<g>
</g>
<g>
</g>
<g>
</g>
<g>
</g>
</svg>
