<?xml version="1.0" encoding="iso-8859-1"?>
<!-- Generator: Adobe Illustrator 19.0.0, SVG Export Plug-In . SVG Version: 6.00 Build 0)  -->
<svg version="1.1" id="Capa_1" xmlns="http://www.w3.org/2000/svg" xmlns:xlink="http://www.w3.org/1999/xlink" x="0px" y="0px"
	 viewBox="0 0 512 512" style="enable-background:new 0 0 512 512;" xml:space="preserve">
<circle style="fill:#6D76E7;" cx="256" cy="256" r="256"/>
<path style="fill:#1C2EDE;" d="M512,256c0-4.688-0.135-9.344-0.384-13.971L341.504,71.918h-62.741v1.395L255.62,53.249h-85.645
	v138.418h-31.384v222.159L154.716,429v18.443l61.472,61.472C229.163,510.94,242.457,512,256,512C397.385,512,512,397.385,512,256z"
	/>
<rect x="278.76" y="71.917" style="fill:#FFEC97;" width="62.741" height="32.5"/>
<rect x="310.13" y="71.916" style="fill:#FFD400;" width="31.37" height="32.504"/>
<rect x="278.76" y="103.66" style="fill:#FFFFFF;" width="62.741" height="15.176"/>
<rect x="310.13" y="103.66" style="fill:#FFEC97;" width="31.37" height="15.175"/>
<polygon style="fill:#FFDBA9;" points="278.763,272.282 310.134,327.467 341.504,272.282 341.504,265.961 278.763,265.961 "/>
<polygon style="fill:#FFC473;" points="341.504,265.961 341.504,272.283 328.673,294.855 310.134,327.466 310.134,265.961 "/>
<rect x="278.76" y="118.1" style="fill:#FF127F;" width="62.741" height="154.18"/>
<rect x="310.13" y="118.1" style="fill:#C50A5B;" width="31.37" height="154.18"/>
<rect x="295.5" y="118.1" style="fill:#FFAA20;" width="29.27" height="154.18"/>
<rect x="310.13" y="118.1" style="fill:#E67500;" width="14.638" height="154.18"/>
<polygon style="fill:#6D76E7;" points="328.672,294.856 291.596,294.856 310.134,327.467 "/>
<polygon style="fill:#1C2EDE;" points="328.673,294.855 310.134,327.466 310.134,294.855 "/>
<rect x="169.97" y="53.25" style="fill:#FFEC97;" width="85.64" height="318.28"/>
<rect x="224.86" y="53.25" style="fill:#FFD400;" width="30.762" height="318.28"/>
<g>
	<rect x="237.06" y="71.915" style="fill:#FF9A00;" width="18.566" height="12.655"/>
	<rect x="237.06" y="105.45" style="fill:#FF9A00;" width="18.566" height="12.655"/>
	<rect x="237.06" y="138.99" style="fill:#FF9A00;" width="18.566" height="12.655"/>
	<rect x="237.06" y="172.52" style="fill:#FF9A00;" width="18.566" height="12.655"/>
	<rect x="237.06" y="206.06" style="fill:#FF9A00;" width="18.566" height="12.655"/>
	<rect x="237.06" y="239.6" style="fill:#FF9A00;" width="18.566" height="12.655"/>
	<rect x="237.06" y="273.13" style="fill:#FF9A00;" width="18.566" height="12.655"/>
	<rect x="237.06" y="306.67" style="fill:#FF9A00;" width="18.566" height="12.655"/>
	<rect x="237.06" y="340.2" style="fill:#FF9A00;" width="18.566" height="12.655"/>
</g>
<rect x="154.72" y="405.16" style="fill:#00D9E0;" width="202.56" height="42.28"/>
<rect x="256" y="405.16" style="fill:#00B7BE;" width="101.28" height="42.28"/>
<rect x="138.59" y="191.67" style="fill:#54FBFF;" width="234.81" height="222.16"/>
<rect x="256" y="191.67" style="fill:#00D9E0;" width="117.41" height="222.16"/>
<g>
</g>
<g>
</g>
<g>
</g>
<g>
</g>
<g>
</g>
<g>
</g>
<g>
</g>
<g>
</g>
<g>
</g>
<g>
</g>
<g>
</g>
<g>
</g>
<g>
</g>
<g>
</g>
<g>
</g>
</svg>
