<?xml version="1.0" encoding="iso-8859-1"?>
<!-- Generator: Adobe Illustrator 19.0.0, SVG Export Plug-In . SVG Version: 6.00 Build 0)  -->
<svg version="1.1" id="Capa_1" xmlns="http://www.w3.org/2000/svg" xmlns:xlink="http://www.w3.org/1999/xlink" x="0px" y="0px"
	 viewBox="0 0 512 512" style="enable-background:new 0 0 512 512;" xml:space="preserve">
<circle style="fill:#54FBFF;" cx="256" cy="256" r="256"/>
<path style="fill:#00B7BE;" d="M512,256c0-24.597-3.478-48.381-9.953-70.895l-87.378-87.378
	c-19.459-19.459-56.57,8.757-81.589,33.775c-20.142,20.142-70.544,74.146-89.432,94.439l0,0l-0.087,0.094
	c-4.117,4.424-6.72,7.227-7.152,7.692l-0.069,0.074l-47.757,63.469c0,0-60.599-15.922-70.464,44.554
	c-7.268,44.554-29.386,60.353-29.386,60.353l101.198,101.198C211.01,508.99,233.152,512,256,512C397.385,512,512,397.385,512,256z"
	/>
<path style="fill:#FFAA20;" d="M215.126,323.813l3.634-3.634l-26.543-26.543l-3.634,3.634c0,0-60.599-15.922-70.464,44.554
	c-7.268,44.554-29.386,60.353-29.386,60.353S213.862,435.039,215.126,323.813z"/>
<path style="fill:#E67500;" d="M105.066,405.181l99.349-99.349l14.347,14.347l-3.635,3.635
	C214.144,409.862,139.029,409.671,105.066,405.181z"/>
<polygon style="fill:#FFFFFF;" points="243.648,225.942 236.34,233.801 188.583,297.27 215.126,323.813 278.594,276.056 
	286.454,268.748 "/>
<path style="fill:#FFF5CB;" d="M286.453,268.752c-2.942,2.744-5.19,4.822-6.498,6.046l-0.396,0.368
	c-0.629,0.587-0.962,0.891-0.962,0.891l-63.47,47.758l-14.347-14.347l63.194-63.194L286.453,268.752z"/>
<path style="fill:#6D76E7;" d="M414.669,97.727c-19.459-19.459-56.57,8.757-81.589,33.775s-96.74,102.299-96.74,102.299
	l21.127,21.127l21.127,21.127c0,0,77.28-71.72,102.299-96.739S434.128,117.186,414.669,97.727z"/>
<path style="fill:#1C2EDE;" d="M380.895,179.317c-20.138,20.138-74.147,70.541-94.441,89.435c-2.942,2.744-5.19,4.822-6.498,6.046
	l-0.396,0.368c-0.629,0.587-0.962,0.891-0.962,0.891l-22.203-22.203L413.563,96.685c0.375,0.332,0.75,0.679,1.11,1.039
	C434.133,117.184,405.912,154.3,380.895,179.317z"/>
<g>
</g>
<g>
</g>
<g>
</g>
<g>
</g>
<g>
</g>
<g>
</g>
<g>
</g>
<g>
</g>
<g>
</g>
<g>
</g>
<g>
</g>
<g>
</g>
<g>
</g>
<g>
</g>
<g>
</g>
</svg>
