<?xml version="1.0" encoding="iso-8859-1"?>
<!-- Generator: Adobe Illustrator 19.0.0, SVG Export Plug-In . SVG Version: 6.00 Build 0)  -->
<svg version="1.1" id="Capa_1" xmlns="http://www.w3.org/2000/svg" xmlns:xlink="http://www.w3.org/1999/xlink" x="0px" y="0px"
	 viewBox="0 0 512 512" style="enable-background:new 0 0 512 512;" xml:space="preserve">
<circle style="fill:#FF127F;" cx="256" cy="256" r="256"/>
<path style="fill:#B10853;" d="M501.815,327.673L307.203,133.061c-26.314-28.186-63.793-45.815-105.395-45.815
	c-79.621,0-144.166,64.546-144.166,144.167c0,41.603,17.629,79.082,45.816,105.396l174.265,174.265
	C384.585,502.092,472.763,427.481,501.815,327.673z"/>
<rect x="201.81" y="349" style="fill:#FFAA20;" width="237.21" height="26.584"/>
<rect x="195.03" y="280.75" style="fill:#FFF5CB;" width="13.548" height="13.04"/>
<rect x="201.81" y="280.75" style="fill:#FFDF47;" width="6.77" height="13.03"/>
<rect x="195.03" y="169.04" style="fill:#FFF5CB;" width="13.548" height="13.04"/>
<rect x="201.81" y="169.04" style="fill:#FFDF47;" width="6.77" height="13.04"/>
<rect x="139.44" y="224.64" style="fill:#FFF5CB;" width="13.04" height="13.548"/>
<rect x="251.14" y="224.64" style="fill:#FFDF47;" width="13.04" height="13.548"/>
<rect x="155.538" y="264.386" transform="matrix(-0.7071 -0.7071 0.7071 -0.7071 85.5243 577.2367)" style="fill:#FFF5CB;" width="13.548" height="13.04"/>
<rect x="234.525" y="185.403" transform="matrix(-0.7071 -0.7071 0.7071 -0.7071 276.2141 498.257)" style="fill:#FFDF47;" width="13.548" height="13.04"/>
<rect x="155.547" y="185.396" transform="matrix(0.7071 -0.7071 0.7071 0.7071 -88.1621 170.9892)" style="fill:#FFF5CB;" width="13.548" height="13.04"/>
<rect x="234.53" y="264.386" transform="matrix(0.7071 -0.7071 0.7071 0.7071 -120.883 249.9737)" style="fill:#FFDF47;" width="13.548" height="13.04"/>
<path style="fill:#FFE670;" d="M201.808,87.246c-79.621,0-144.166,64.546-144.166,144.167s64.546,144.166,144.166,144.166
	s144.167-64.546,144.167-144.166S281.429,87.246,201.808,87.246z M201.808,294.805c-35.011,0-63.392-28.382-63.392-63.392
	s28.382-63.392,63.392-63.392c35.011,0,63.392,28.382,63.392,63.392S236.819,294.805,201.808,294.805z"/>
<path style="fill:#FFD400;" d="M201.808,87.25v80.77c35.01,0,63.39,28.38,63.39,63.39s-28.38,63.4-63.39,63.4v80.77
	c79.62,0,144.17-64.55,144.17-144.17S281.428,87.25,201.808,87.25z"/>
<path style="fill:#FFFFFF;" d="M201.808,154.217c-42.634,0-77.195,34.562-77.195,77.196s34.562,77.195,77.195,77.195
	s77.195-34.562,77.195-77.195S244.442,154.217,201.808,154.217z M201.808,289.693c-32.187,0-58.28-26.093-58.28-58.28
	s26.093-58.28,58.28-58.28s58.28,26.093,58.28,58.28S233.995,289.693,201.808,289.693z"/>
<path style="fill:#FFF5CB;" d="M201.808,154.22v18.91c2.29,0,4.55,0.13,6.77,0.39c29,3.36,51.51,28,51.51,57.89
	c0,29.9-22.51,54.54-51.51,57.89c-2.22,0.26-4.48,0.39-6.77,0.39v18.92c42.63,0,77.2-34.56,77.2-77.2
	C279.008,188.78,244.438,154.22,201.808,154.22z"/>
<g>
</g>
<g>
</g>
<g>
</g>
<g>
</g>
<g>
</g>
<g>
</g>
<g>
</g>
<g>
</g>
<g>
</g>
<g>
</g>
<g>
</g>
<g>
</g>
<g>
</g>
<g>
</g>
<g>
</g>
</svg>
