<?xml version="1.0" encoding="iso-8859-1"?>
<!-- Generator: Adobe Illustrator 19.0.0, SVG Export Plug-In . SVG Version: 6.00 Build 0)  -->
<svg version="1.1" id="Capa_1" xmlns="http://www.w3.org/2000/svg" xmlns:xlink="http://www.w3.org/1999/xlink" x="0px" y="0px"
	 viewBox="0 0 512 512" style="enable-background:new 0 0 512 512;" xml:space="preserve">
<circle style="fill:#FFEC97;" cx="256" cy="256" r="256"/>
<path style="fill:#FFD400;" d="M512,256c0-13.699-1.088-27.142-3.16-40.258L352.431,59.333H159.569v98.685h-45.586v272.648
	l71.489,71.49C207.877,508.564,231.537,512,256,512C397.385,512,512,397.385,512,256z"/>
<rect x="159.57" y="59.33" style="fill:#FFFFFF;" width="192.86" height="120.67"/>
<rect x="256" y="59.33" style="fill:#FFF5CB;" width="96.43" height="120.67"/>
<rect x="113.98" y="158.02" style="fill:#54FBFF;" width="284.04" height="66.42"/>
<rect x="256" y="158.02" style="fill:#00B7BE;" width="142.02" height="66.42"/>
<rect x="113.98" y="214.95" style="fill:#FF53A1;" width="284.04" height="215.72"/>
<rect x="256" y="214.95" style="fill:#FF127F;" width="142.02" height="215.72"/>
<rect x="147.49" y="243.74" style="fill:#E80C6A;" width="217.02" height="156.57"/>
<rect x="256" y="243.73" style="fill:#B10853;" width="108.51" height="156.57"/>
<g>
	<path style="fill:#FFFFFF;" d="M179.456,354.439h-9.489c0-7.007,2.566-10.748,4.627-13.754c1.721-2.51,2.964-4.324,2.964-8.389
		s-1.244-5.879-2.964-8.389c-2.061-3.006-4.627-6.748-4.627-13.753s2.566-10.747,4.628-13.754c1.72-2.508,2.963-4.322,2.963-8.386
		c0-4.063-1.244-5.877-2.963-8.385c-2.062-3.006-4.628-6.748-4.628-13.753s2.566-10.746,4.627-13.753
		c1.721-2.508,2.964-4.322,2.964-8.386h9.489c0,7.005-2.566,10.746-4.627,13.753c-1.721,2.508-2.964,4.322-2.964,8.386
		s1.244,5.878,2.964,8.386c2.061,3.006,4.627,6.748,4.627,13.753s-2.566,10.746-4.627,13.752c-1.721,2.51-2.964,4.323-2.964,8.388
		s1.244,5.878,2.964,8.388c2.061,3.006,4.627,6.748,4.627,13.754s-2.566,10.748-4.627,13.754
		C180.7,348.561,179.456,350.374,179.456,354.439z"/>
	<path style="fill:#FFFFFF;" d="M210.453,354.439h-9.489c0-7.007,2.566-10.748,4.627-13.754c1.721-2.51,2.964-4.324,2.964-8.389
		s-1.244-5.879-2.964-8.389c-2.061-3.006-4.627-6.748-4.627-13.753s2.566-10.747,4.628-13.754c1.72-2.508,2.964-4.322,2.964-8.386
		c0-4.063-1.244-5.877-2.964-8.385c-2.062-3.006-4.628-6.748-4.628-13.753s2.566-10.746,4.627-13.753
		c1.721-2.508,2.964-4.322,2.964-8.386h9.489c0,7.005-2.566,10.746-4.627,13.753c-1.721,2.508-2.964,4.322-2.964,8.386
		s1.243,5.878,2.964,8.386c2.061,3.006,4.627,6.748,4.627,13.753s-2.566,10.746-4.627,13.752c-1.721,2.51-2.964,4.323-2.964,8.388
		s1.243,5.878,2.964,8.388c2.061,3.006,4.627,6.748,4.627,13.754s-2.566,10.748-4.627,13.754
		C211.697,348.561,210.453,350.374,210.453,354.439z"/>
	<path style="fill:#FFFFFF;" d="M241.45,354.439h-9.489c0-7.007,2.566-10.748,4.627-13.754c1.721-2.51,2.964-4.324,2.964-8.389
		s-1.243-5.879-2.964-8.389c-2.061-3.006-4.627-6.748-4.627-13.753s2.566-10.747,4.628-13.754c1.72-2.508,2.963-4.322,2.963-8.386
		c0-4.063-1.243-5.877-2.963-8.385c-2.062-3.006-4.628-6.748-4.628-13.753s2.566-10.746,4.627-13.753
		c1.721-2.508,2.964-4.322,2.964-8.386h9.489c0,7.005-2.566,10.746-4.627,13.753c-1.721,2.508-2.964,4.322-2.964,8.386
		s1.244,5.878,2.964,8.386c2.061,3.006,4.627,6.748,4.627,13.753s-2.566,10.746-4.627,13.752c-1.721,2.51-2.964,4.323-2.964,8.388
		s1.244,5.878,2.964,8.388c2.061,3.006,4.627,6.748,4.627,13.754s-2.566,10.748-4.627,13.754
		C242.694,348.561,241.45,350.374,241.45,354.439z"/>
</g>
<g>
	<path style="fill:#FFF5CB;" d="M272.448,354.439h-9.489c0-7.007,2.566-10.748,4.627-13.754c1.721-2.51,2.964-4.324,2.964-8.389
		s-1.244-5.879-2.964-8.389c-2.061-3.006-4.627-6.748-4.627-13.753s2.566-10.747,4.628-13.754c1.72-2.508,2.963-4.322,2.963-8.386
		c0-4.063-1.244-5.877-2.963-8.385c-2.062-3.006-4.628-6.748-4.628-13.753s2.566-10.746,4.627-13.753
		c1.721-2.508,2.964-4.322,2.964-8.386h9.489c0,7.005-2.566,10.746-4.627,13.753c-1.721,2.508-2.964,4.322-2.964,8.386
		s1.243,5.878,2.964,8.386c2.061,3.006,4.627,6.748,4.627,13.753s-2.566,10.746-4.627,13.752c-1.721,2.51-2.964,4.323-2.964,8.388
		s1.243,5.878,2.964,8.388c2.061,3.006,4.627,6.748,4.627,13.754s-2.566,10.748-4.627,13.754
		C273.691,348.561,272.448,350.374,272.448,354.439z"/>
	<path style="fill:#FFF5CB;" d="M303.445,354.439h-9.489c0-7.007,2.566-10.748,4.627-13.754c1.721-2.51,2.964-4.324,2.964-8.389
		s-1.244-5.879-2.964-8.389c-2.061-3.006-4.627-6.748-4.627-13.753s2.566-10.747,4.628-13.754c1.72-2.508,2.964-4.322,2.964-8.386
		c0-4.063-1.244-5.877-2.964-8.385c-2.062-3.006-4.628-6.748-4.628-13.753s2.566-10.746,4.627-13.753
		c1.721-2.508,2.964-4.322,2.964-8.386h9.489c0,7.005-2.566,10.746-4.627,13.753c-1.721,2.508-2.964,4.322-2.964,8.386
		s1.244,5.878,2.964,8.386c2.061,3.006,4.627,6.748,4.627,13.753s-2.566,10.746-4.627,13.752c-1.721,2.51-2.964,4.323-2.964,8.388
		s1.244,5.878,2.964,8.388c2.061,3.006,4.627,6.748,4.627,13.754s-2.566,10.748-4.627,13.754
		C304.688,348.561,303.445,350.374,303.445,354.439z"/>
	<path style="fill:#FFF5CB;" d="M334.442,354.439h-9.489c0-7.007,2.566-10.748,4.627-13.754c1.721-2.51,2.964-4.324,2.964-8.389
		s-1.244-5.879-2.964-8.389c-2.061-3.006-4.627-6.748-4.627-13.753s2.566-10.747,4.628-13.754c1.72-2.508,2.963-4.322,2.963-8.386
		c0-4.063-1.244-5.877-2.963-8.385c-2.062-3.006-4.628-6.748-4.628-13.753s2.566-10.746,4.627-13.753
		c1.721-2.508,2.964-4.322,2.964-8.386h9.489c0,7.005-2.566,10.746-4.627,13.753c-1.721,2.508-2.964,4.322-2.964,8.386
		s1.244,5.878,2.964,8.386c2.061,3.006,4.627,6.748,4.627,13.753s-2.566,10.746-4.627,13.752c-1.721,2.51-2.964,4.323-2.964,8.388
		s1.244,5.878,2.964,8.388c2.061,3.006,4.627,6.748,4.627,13.754s-2.566,10.748-4.627,13.754
		C335.685,348.561,334.442,350.374,334.442,354.439z"/>
</g>
<circle style="fill:#1C2EDE;" cx="327.11" cy="186.96" r="11.966"/>
<circle style="fill:#2A2A2C;" cx="363.28" cy="186.96" r="11.966"/>
<g>
</g>
<g>
</g>
<g>
</g>
<g>
</g>
<g>
</g>
<g>
</g>
<g>
</g>
<g>
</g>
<g>
</g>
<g>
</g>
<g>
</g>
<g>
</g>
<g>
</g>
<g>
</g>
<g>
</g>
</svg>
