<?xml version="1.0" encoding="iso-8859-1"?>
<!-- Generator: Adobe Illustrator 19.0.0, SVG Export Plug-In . SVG Version: 6.00 Build 0)  -->
<svg version="1.1" id="Capa_1" xmlns="http://www.w3.org/2000/svg" xmlns:xlink="http://www.w3.org/1999/xlink" x="0px" y="0px"
	 viewBox="0 0 512 512" style="enable-background:new 0 0 512 512;" xml:space="preserve">
<circle style="fill:#FFAA20;" cx="256" cy="256" r="256"/>
<path style="fill:#E67500;" d="M512,256c0-5.8-0.212-11.55-0.592-17.254l-72.83-72.83H147.5L95.25,114.25H73.422v208.676
	c0,22.106,9.733,41.928,25.133,55.452l132.399,132.4c8.242,0.8,16.594,1.221,25.046,1.221C397.385,512,512,397.385,512,256z"/>
<rect x="435.42" y="212.6" style="fill:#283EE1;" width="22.583" height="45.736"/>
<g>
	<rect x="73.42" y="114.25" style="fill:#54FBFF;" width="21.829" height="54.75"/>
	<path style="fill:#54FBFF;" d="M364.785,396.721h-217.57c-40.755,0-73.794-33.039-73.794-73.794V180.689h365.157v142.238
		C438.578,363.682,405.54,396.721,364.785,396.721z"/>
</g>
<path style="fill:#00D9E0;" d="M438.58,180.69v142.24c0,40.75-33.04,73.79-73.8,73.79H256V180.69H438.58z"/>
<rect x="73.42" y="167.25" style="fill:#FF127F;" width="365.16" height="45.35"/>
<rect x="256" y="167.25" style="fill:#B10853;" width="182.58" height="45.35"/>
<rect x="73.42" y="165.92" style="fill:#FFFFFF;" width="365.16" height="16.251"/>
<rect x="256" y="165.92" style="fill:#FFF5CB;" width="182.58" height="16.25"/>
<g>
</g>
<g>
</g>
<g>
</g>
<g>
</g>
<g>
</g>
<g>
</g>
<g>
</g>
<g>
</g>
<g>
</g>
<g>
</g>
<g>
</g>
<g>
</g>
<g>
</g>
<g>
</g>
<g>
</g>
</svg>
