<?xml version="1.0" encoding="iso-8859-1"?>
<!-- Generator: Adobe Illustrator 19.0.0, SVG Export Plug-In . SVG Version: 6.00 Build 0)  -->
<svg version="1.1" id="Capa_1" xmlns="http://www.w3.org/2000/svg" xmlns:xlink="http://www.w3.org/1999/xlink" x="0px" y="0px"
	 viewBox="0 0 512 512" style="enable-background:new 0 0 512 512;" xml:space="preserve">
<circle style="fill:#FFAA20;" cx="256" cy="256" r="256"/>
<path style="fill:#E67500;" d="M512,256c0-18.497-1.979-36.529-5.706-53.914L370.935,66.728L155.112,282.552l8.806,8.806
	l-10.873,10.873l-6.809-6.809l-13.925,13.926l6.718,6.718l-57.803,69.368l120.861,120.861C219.471,510.021,237.503,512,256,512
	C397.385,512,512,397.385,512,256z"/>
<rect x="147.845" y="312.165" transform="matrix(-0.7071 -0.7071 0.7071 -0.7071 91.7291 686.0735)" style="fill:#FFF5CB;" width="80.219" height="23.748"/>
<rect x="190.264" y="318.174" transform="matrix(-0.7071 0.7071 -0.7071 -0.7071 584.2363 434.4599)" style="fill:#FFDF47;" width="23.75" height="40.11"/>
<rect x="243.017" y="70.322" transform="matrix(-0.7071 -0.7071 0.7071 -0.7071 351.5599 578.4512)" style="fill:#FFFFFF;" width="105.129" height="292.187"/>
<rect x="168.079" y="208.719" transform="matrix(-0.7071 0.7071 -0.7071 -0.7071 702.4878 179.0178)" style="fill:#FFF5CB;" width="292.177" height="52.559"/>
<path style="fill:#6D76E7;" d="M215.635,296.365L215.635,296.365c-11.647-11.647-11.647-30.706,0-42.352l112.641-112.641
	c11.647-11.647,30.706-11.647,42.352,0l0,0c11.647,11.647,11.647,30.706,0,42.353l-112.641,112.64
	C246.34,308.012,227.281,308.012,215.635,296.365z"/>
<path style="fill:#3A4DE3;" d="M370.629,183.727L257.987,296.369c-11.646,11.646-30.709,11.646-42.355,0L370.63,141.371
	c5.827,5.827,8.733,13.499,8.733,21.178C379.362,170.228,376.456,177.9,370.629,183.727z"/>
<rect x="344.79" y="99.44" transform="matrix(-0.7071 -0.7071 0.7071 -0.7071 597.2606 476.6831)" style="fill:#FFF5CB;" width="105.129" height="30.409"/>
<rect x="400.729" y="106.95" transform="matrix(-0.7071 0.7071 -0.7071 -0.7071 804.2504 -66.6728)" style="fill:#FFDF47;" width="30.41" height="52.559"/>
<polygon style="fill:#3A4DE3;" points="140.425,314.389 81.226,385.433 126.567,430.774 197.611,371.575 "/>
<polygon style="fill:#1C2EDE;" points="197.614,371.577 195.938,372.97 126.564,430.776 103.894,408.106 169.019,342.981 "/>
<rect x="124.701" y="327.703" transform="matrix(-0.7071 -0.7071 0.7071 -0.7071 59.1046 699.5813)" style="fill:#6D76E7;" width="99.479" height="19.693"/>
<rect x="182.183" y="330.262" transform="matrix(-0.7071 0.7071 -0.7071 -0.7071 578.9272 470.4636)" style="fill:#4B5BE5;" width="19.69" height="49.74"/>
<g>
</g>
<g>
</g>
<g>
</g>
<g>
</g>
<g>
</g>
<g>
</g>
<g>
</g>
<g>
</g>
<g>
</g>
<g>
</g>
<g>
</g>
<g>
</g>
<g>
</g>
<g>
</g>
<g>
</g>
</svg>
