<?xml version="1.0" encoding="iso-8859-1"?>
<!-- Generator: Adobe Illustrator 19.0.0, SVG Export Plug-In . SVG Version: 6.00 Build 0)  -->
<svg version="1.1" id="Capa_1" xmlns="http://www.w3.org/2000/svg" xmlns:xlink="http://www.w3.org/1999/xlink" x="0px" y="0px"
	 viewBox="0 0 512 512" style="enable-background:new 0 0 512 512;" xml:space="preserve">
<circle style="fill:#FFEC97;" cx="256" cy="256" r="256"/>
<path style="fill:#FFD400;" d="M511.225,276.023L371.838,136.654c-5.019-5.346-11.757-9.06-19.323-10.243l-87.239-86.328h-18.551
	v22.294c0,7.358-5.986,13.344-13.344,13.344h-54.233c-18.574,0-33.685,15.111-33.685,33.685v1.465c0,8.62,3.257,16.49,8.603,22.452
	l83.067,83.134H83.81v188.625l95.094,95.094C203.235,507.851,229.132,512,256,512C390.646,512,501.01,408.049,511.225,276.023z"/>
<path style="fill:#FF127F;" d="M265.275,226.572h-18.551v-19.853c0-17.587,14.308-31.896,31.896-31.896h68.672
	c8.345,0,15.134-6.789,15.134-15.134s-6.789-15.134-15.134-15.134H179.147c-18.574,0-33.685-15.111-33.685-33.685v-1.465
	c0-18.574,15.111-33.685,33.685-33.685h54.233c7.358,0,13.344-5.986,13.344-13.344V40.082h18.551v22.294
	c0,17.587-14.308,31.896-31.895,31.896h-54.233c-8.345,0-15.134,6.789-15.134,15.134v1.465c0,8.345,6.789,15.134,15.134,15.134
	h168.145c18.574,0,33.685,15.111,33.685,33.685s-15.111,33.685-33.685,33.685H278.62c-7.358,0-13.344,5.986-13.344,13.344v19.853
	H265.275z"/>
<g>
	<path style="fill:#B10853;" d="M265.28,62.38c0,8.76-3.55,16.7-9.28,22.47V40.08h9.28V62.38z"/>
	<path style="fill:#B10853;" d="M380.98,159.69c0,18.57-15.11,33.69-33.69,33.69h-68.67c-7.36,0-13.34,5.98-13.34,13.34v19.85H256
		v-42.33c5.79-5.81,13.79-9.42,22.62-9.42h68.67c8.35,0,15.14-6.79,15.14-15.13c0-8.35-6.79-15.13-15.14-15.13H256V126h91.29
		C365.87,126,380.98,141.12,380.98,159.69z"/>
</g>
<rect x="83.81" y="216.46" style="fill:#4A5BE5;" width="344.38" height="188.62"/>
<rect x="256" y="216.46" style="fill:#1C2EDE;" width="172.19" height="188.62"/>
<g>
	<rect x="111.47" y="246.43" style="fill:#96A0F0;" width="35.895" height="34.11"/>
	<rect x="162.1" y="246.43" style="fill:#96A0F0;" width="35.895" height="34.11"/>
	<rect x="212.74" y="246.43" style="fill:#96A0F0;" width="35.895" height="34.11"/>
</g>
<g>
	<rect x="263.37" y="246.43" style="fill:#6D76E7;" width="35.895" height="34.11"/>
	<rect x="314" y="246.43" style="fill:#6D76E7;" width="35.895" height="34.11"/>
	<rect x="364.63" y="246.43" style="fill:#6D76E7;" width="35.895" height="34.11"/>
</g>
<g>
	<rect x="111.47" y="341" style="fill:#96A0F0;" width="35.895" height="34.11"/>
	<rect x="162.1" y="341" style="fill:#96A0F0;" width="187.79" height="34.11"/>
</g>
<g>
	<rect x="256" y="341" style="fill:#6D76E7;" width="93.89" height="34.11"/>
	<rect x="364.63" y="341" style="fill:#6D76E7;" width="35.895" height="34.11"/>
</g>
<g>
	<rect x="136.79" y="293.72" style="fill:#96A0F0;" width="35.895" height="34.11"/>
	<rect x="187.42" y="293.72" style="fill:#96A0F0;" width="35.895" height="34.11"/>
	<rect x="238.05" y="293.72" style="fill:#96A0F0;" width="35.895" height="34.11"/>
</g>
<g>
	<rect x="256" y="293.72" style="fill:#6D76E7;" width="17.95" height="34.1"/>
	<rect x="288.68" y="293.72" style="fill:#6D76E7;" width="35.895" height="34.11"/>
	<rect x="339.31" y="293.72" style="fill:#6D76E7;" width="35.895" height="34.11"/>
</g>
<g>
</g>
<g>
</g>
<g>
</g>
<g>
</g>
<g>
</g>
<g>
</g>
<g>
</g>
<g>
</g>
<g>
</g>
<g>
</g>
<g>
</g>
<g>
</g>
<g>
</g>
<g>
</g>
<g>
</g>
</svg>
