<?xml version="1.0" encoding="iso-8859-1"?>
<!-- Generator: Adobe Illustrator 19.0.0, SVG Export Plug-In . SVG Version: 6.00 Build 0)  -->
<svg version="1.1" id="Capa_1" xmlns="http://www.w3.org/2000/svg" xmlns:xlink="http://www.w3.org/1999/xlink" x="0px" y="0px"
	 viewBox="0 0 512 512" style="enable-background:new 0 0 512 512;" xml:space="preserve">
<circle style="fill:#6D76E7;" cx="256" cy="256" r="256"/>
<path style="fill:#1C2EDE;" d="M512,256c0-23.185-3.1-45.642-8.877-67l-79.159-79.16H88.037v82.364l19.946,20v205.364l87.125,87.125
	C214.627,509.457,235.015,512,256,512C397.385,512,512,397.385,512,256z"/>
<rect x="107.98" y="187.48" style="fill:#FFC473;" width="296.03" height="230.09"/>
<rect x="256" y="187.49" style="fill:#FFAA20;" width="148.02" height="230.08"/>
<rect x="88.04" y="109.84" style="fill:#FF9A00;" width="335.93" height="82.36"/>
<rect x="256" y="109.84" style="fill:#E67500;" width="167.96" height="82.36"/>
<rect x="183" y="224.54" style="fill:#FF9A00;" width="146" height="49.828"/>
<rect x="256" y="224.53" style="fill:#E67500;" width="73" height="49.83"/>
<g>
	<rect x="195.5" y="299.77" style="fill:#FFFFFF;" width="121" height="19.593"/>
	<rect x="195.5" y="337.8" style="fill:#FFFFFF;" width="121" height="19.593"/>
</g>
<g>
	<rect x="256" y="299.77" style="fill:#FFEC97;" width="60.5" height="19.59"/>
	<rect x="256" y="337.81" style="fill:#FFEC97;" width="60.5" height="19.59"/>
</g>
<g>
</g>
<g>
</g>
<g>
</g>
<g>
</g>
<g>
</g>
<g>
</g>
<g>
</g>
<g>
</g>
<g>
</g>
<g>
</g>
<g>
</g>
<g>
</g>
<g>
</g>
<g>
</g>
<g>
</g>
</svg>
