<?xml version="1.0" encoding="iso-8859-1"?>
<!-- Generator: Adobe Illustrator 19.0.0, SVG Export Plug-In . SVG Version: 6.00 Build 0)  -->
<svg version="1.1" id="Capa_1" xmlns="http://www.w3.org/2000/svg" xmlns:xlink="http://www.w3.org/1999/xlink" x="0px" y="0px"
	 viewBox="0 0 512 512" style="enable-background:new 0 0 512 512;" xml:space="preserve">
<circle style="fill:#54FBFF;" cx="256" cy="256" r="256"/>
<path style="fill:#00D9E0;" d="M512,256c0-6.476-0.246-12.894-0.718-19.249L371.531,97l-81.943,20.732l-10.105-6.198H89.573V398.16
	l106.856,106.856C215.546,509.572,235.488,512,256,512C397.385,512,512,397.385,512,256z"/>
<rect x="89.57" y="111.53" style="fill:#6D76E7;" width="94.95" height="286.62"/>
<g>
	<rect x="137.05" y="111.54" style="fill:#3A4DE3;" width="47.48" height="286.62"/>
	<rect x="115.2" y="142.3" style="fill:#3A4DE3;" width="43.7" height="162.24"/>
</g>
<rect x="137.05" y="142.31" style="fill:#1C2EDE;" width="21.854" height="162.24"/>
<circle style="fill:#3A4DE3;" cx="137.05" cy="345.39" r="21.978"/>
<path style="fill:#1C2EDE;" d="M159.024,345.395c0,12.14-9.837,21.978-21.977,21.978v-43.955
	C149.187,323.417,159.024,333.254,159.024,345.395z"/>
<rect x="184.53" y="111.53" style="fill:#FF53A1;" width="94.95" height="286.62"/>
<rect x="232" y="111.54" style="fill:#FF127F;" width="47.48" height="286.62"/>
<rect x="210.16" y="142.3" style="fill:#E80C6A;" width="43.7" height="162.24"/>
<rect x="232" y="142.31" style="fill:#B10853;" width="21.854" height="162.24"/>
<circle style="fill:#E80C6A;" cx="232.01" cy="345.39" r="21.978"/>
<path style="fill:#B10853;" d="M253.98,345.395c0,12.14-9.837,21.978-21.978,21.978v-43.955
	C244.143,323.417,253.98,333.254,253.98,345.395z"/>
<rect x="313.2" y="104.273" transform="matrix(-0.9695 0.2453 -0.2453 -0.9695 771.067 399.1469)" style="fill:#FF9A00;" width="94.955" height="286.635"/>
<rect x="240.355" y="217.987" transform="matrix(0.2453 0.9695 -0.9695 0.2453 523.9056 -189.5157)" style="fill:#C06200;" width="286.635" height="47.482"/>
<rect x="331.119" y="135.985" transform="matrix(-0.9695 0.2453 -0.2453 -0.9695 748.4114 341.0073)" style="fill:#E67500;" width="43.702" height="162.248"/>
<rect x="282.417" y="203.488" transform="matrix(0.2453 0.9695 -0.9695 0.2453 482.2349 -190.612)" style="fill:#9A4C00;" width="162.248" height="21.856"/>
<circle style="fill:#E67500;" cx="382.87" cy="335.36" r="21.978"/>
<path style="fill:#9A4C00;" d="M404.169,329.972c2.978,11.77-4.146,23.719-15.916,26.697l-10.781-42.612
	C389.242,311.078,401.191,318.202,404.169,329.972z"/>
<g>
</g>
<g>
</g>
<g>
</g>
<g>
</g>
<g>
</g>
<g>
</g>
<g>
</g>
<g>
</g>
<g>
</g>
<g>
</g>
<g>
</g>
<g>
</g>
<g>
</g>
<g>
</g>
<g>
</g>
</svg>
