<?xml version="1.0" encoding="iso-8859-1"?>
<!-- Generator: Adobe Illustrator 19.0.0, SVG Export Plug-In . SVG Version: 6.00 Build 0)  -->
<svg version="1.1" id="Capa_1" xmlns="http://www.w3.org/2000/svg" xmlns:xlink="http://www.w3.org/1999/xlink" x="0px" y="0px"
	 viewBox="0 0 512 512" style="enable-background:new 0 0 512 512;" xml:space="preserve">
<circle style="fill:#FFEC97;" cx="256" cy="256" r="256"/>
<path style="fill:#FFD400;" d="M512,256c0-0.106-0.004-0.212-0.004-0.319C466.774,210.449,391.142,134.9,391.142,134.9
	C357.31,98.925,309.283,76.452,256,76.452l0,0c-102.445,0-185.492,83.048-185.492,185.493v123.888L187.35,502.676
	C209.199,508.744,232.218,512,256,512C397.385,512,512,397.385,512,256z"/>
<path style="fill:#FF53A1;" d="M256,74.452L256,74.452c-102.445,0-185.493,83.048-185.493,185.493V359.5h370.985v-99.555
	C441.493,157.5,358.445,74.452,256,74.452z M385.829,283.555h-75.974c0.011-0.445,0.034-0.886,0.034-1.333
	c0-29.762-24.127-53.888-53.888-53.888s-53.889,24.127-53.889,53.888c0,0.447,0.023,0.889,0.034,1.333h-75.974v-22.059
	c0-71.703,58.126-129.829,129.829-129.829l0,0c71.703,0,129.829,58.126,129.829,129.829L385.829,283.555L385.829,283.555z"/>
<path style="fill:#C50A5B;" d="M256,74.45v57.22c35.85,0,68.31,14.53,91.8,38.02c23.5,23.5,38.03,55.95,38.03,91.81v22.06h-75.98
	c0.02-0.45,0.04-0.89,0.04-1.34c0-29.76-24.13-53.89-53.89-53.89V359.5h185.49v-99.56C441.49,157.5,358.44,74.45,256,74.45z"/>
<rect x="70.51" y="342" style="fill:#FFFFFF;" width="370.99" height="41.833"/>
<rect x="256" y="342" style="fill:#FFF5CB;" width="185.49" height="41.83"/>
<path style="fill:#54FBFF;" d="M264.93,74.66v19.51h-17.86V74.66c2.96-0.14,5.93-0.21,8.93-0.21
	C259,74.45,261.97,74.52,264.93,74.66z"/>
<path style="fill:#00B7BE;" d="M264.93,74.66v19.51H256V74.45C259,74.45,261.97,74.52,264.93,74.66z"/>
<rect x="70.51" y="265.69" style="fill:#54FBFF;" width="25.08" height="17.87"/>
<rect x="416.41" y="265.69" style="fill:#00B7BE;" width="25.08" height="17.87"/>
<path style="fill:#54FBFF;" d="M199.02,108.75l-16.78,6.13l-7.88-21.54c5.34-2.62,10.82-5,16.43-7.1L199.02,108.75z"/>
<path style="fill:#00B7BE;" d="M337.64,93.34l-7.88,21.54l-16.78-6.13l8.23-22.51C326.82,88.34,332.3,90.72,337.64,93.34z"/>
<path style="fill:#54FBFF;" d="M142.29,145.56l-12.93,12.32l-15.88-16.67c3.83-4.59,7.87-8.99,12.12-13.18L142.29,145.56z"/>
<path style="fill:#00B7BE;" d="M398.52,141.21l-15.88,16.67l-12.93-12.32l16.69-17.53C390.65,132.22,394.69,136.62,398.52,141.21z"
	/>
<path style="fill:#54FBFF;" d="M104.79,199.08l-5.34,17.05l-21.93-6.86c1.63-5.77,3.54-11.42,5.7-16.94L104.79,199.08z"/>
<path style="fill:#00B7BE;" d="M434.48,209.27l-21.93,6.86l-5.34-17.05l21.57-6.75C430.94,197.85,432.85,203.5,434.48,209.27z"/>
<g>
</g>
<g>
</g>
<g>
</g>
<g>
</g>
<g>
</g>
<g>
</g>
<g>
</g>
<g>
</g>
<g>
</g>
<g>
</g>
<g>
</g>
<g>
</g>
<g>
</g>
<g>
</g>
<g>
</g>
</svg>
