<?xml version="1.0" encoding="iso-8859-1"?>
<!-- Generator: Adobe Illustrator 19.0.0, SVG Export Plug-In . SVG Version: 6.00 Build 0)  -->
<svg version="1.1" id="Capa_1" xmlns="http://www.w3.org/2000/svg" xmlns:xlink="http://www.w3.org/1999/xlink" x="0px" y="0px"
	 viewBox="0 0 512 512" style="enable-background:new 0 0 512 512;" xml:space="preserve">
<circle style="fill:#6D76E7;" cx="256" cy="256" r="256"/>
<path style="fill:#1C2EDE;" d="M512,256c0-9.841-0.575-19.547-1.656-29.099L388.917,105.474H251.359l-45.327-44.64l-46.469,12.025
	l8.44,32.615h-64.085v287L221.06,509.616C232.485,511.176,244.146,512,256,512C397.385,512,512,397.385,512,256z"/>
<rect x="123.15" y="124.71" style="fill:#FFAA20;" width="285" height="287"/>
<rect x="265.65" y="124.7" style="fill:#E67500;" width="142.5" height="287"/>
<polygon style="fill:#FFE670;" points="388.917,105.474 103.917,105.474 103.917,392.474 309.251,392.474 388.917,312.808 "/>
<polygon style="fill:#FFD400;" points="388.917,105.474 388.917,312.804 309.247,392.474 246.417,392.474 246.417,105.474 "/>
<polygon style="fill:#FF9A00;" points="309.251,392.474 388.917,312.808 309.251,312.808 "/>
<rect x="168.788" y="65.582" transform="matrix(-0.9681 0.2505 -0.2505 -0.9681 405.852 159.3053)" style="fill:#00D9E0;" width="47.999" height="79.799"/>
<g>
</g>
<g>
</g>
<g>
</g>
<g>
</g>
<g>
</g>
<g>
</g>
<g>
</g>
<g>
</g>
<g>
</g>
<g>
</g>
<g>
</g>
<g>
</g>
<g>
</g>
<g>
</g>
<g>
</g>
</svg>
