<?xml version="1.0" encoding="iso-8859-1"?>
<!-- Generator: Adobe Illustrator 19.0.0, SVG Export Plug-In . SVG Version: 6.00 Build 0)  -->
<svg version="1.1" id="Capa_1" xmlns="http://www.w3.org/2000/svg" xmlns:xlink="http://www.w3.org/1999/xlink" x="0px" y="0px"
	 viewBox="0 0 512 512" style="enable-background:new 0 0 512 512;" xml:space="preserve">
<circle style="fill:#54FBFF;" cx="256" cy="256" r="256"/>
<path style="fill:#00B7BE;" d="M512,256c0-3.11-0.075-6.203-0.185-9.286L355.252,90.152H339l-37.896-37.485h-90.209v37.485h-54.148
	v350.841l69.247,69.248C235.839,511.39,245.848,512,256,512C397.385,512,512,397.385,512,256z"/>
<rect x="210.9" y="52.667" style="fill:#FFFFFF;" width="90.21" height="41.32"/>
<rect x="256" y="52.67" style="fill:#FFF5CB;" width="45.1" height="41.31"/>
<rect x="156.75" y="90.15" style="fill:#6D76E7;" width="198.5" height="350.84"/>
<rect x="256" y="90.15" style="fill:#283EE1;" width="99.25" height="350.84"/>
<rect x="156.75" y="265.57" style="fill:#FFAA20;" width="198.5" height="175.42"/>
<rect x="256" y="265.57" style="fill:#E67500;" width="99.25" height="175.42"/>
<polygon style="fill:#FFFFFF;" points="263.677,167.982 263.677,150.326 248.323,150.326 248.323,167.982 230.666,167.982 
	230.666,183.337 248.323,183.337 248.323,200.993 263.677,200.993 263.677,183.337 281.334,183.337 281.334,167.982 "/>
<polygon style="fill:#FFF5CB;" points="281.33,167.98 281.33,183.34 263.68,183.34 263.68,200.99 256,200.99 256,150.33 
	263.68,150.33 263.68,167.98 "/>
<rect x="230.67" y="345.79" style="fill:#FFFFFF;" width="50.667" height="15.355"/>
<rect x="256" y="345.79" style="fill:#FFF5CB;" width="25.33" height="15.35"/>
<g>
</g>
<g>
</g>
<g>
</g>
<g>
</g>
<g>
</g>
<g>
</g>
<g>
</g>
<g>
</g>
<g>
</g>
<g>
</g>
<g>
</g>
<g>
</g>
<g>
</g>
<g>
</g>
<g>
</g>
</svg>
