<?xml version="1.0" encoding="iso-8859-1"?>
<!-- Generator: Adobe Illustrator 19.0.0, SVG Export Plug-In . SVG Version: 6.00 Build 0)  -->
<svg version="1.1" id="Capa_1" xmlns="http://www.w3.org/2000/svg" xmlns:xlink="http://www.w3.org/1999/xlink" x="0px" y="0px"
	 viewBox="0 0 512 512" style="enable-background:new 0 0 512 512;" xml:space="preserve">
<circle style="fill:#FF127F;" cx="256" cy="256" r="256"/>
<path style="fill:#B10853;" d="M512,256c0-11.144-0.715-22.121-2.097-32.89L368.866,82.055c-8.526-9.822-23.866-10.619-33.342-1.143
	L106.168,310.268l15.958,15.957l-19.546,19.546l38.389,74.211l90.876,90.876C239.798,511.602,247.852,512,256,512
	C397.385,512,512,397.385,512,256z"/>
<polygon style="fill:#FFFFFF;" points="355.428,205.523 140.969,419.982 121.771,382.88 102.58,345.771 299.128,149.223 "/>
<polygon style="fill:#FFF5CB;" points="355.428,205.523 140.969,419.982 121.771,382.88 327.278,177.373 "/>
<rect x="242.407" y="223.023" transform="matrix(-0.7071 -0.7071 0.7071 -0.7071 293.7766 591.9822)" style="fill:#3C3B41;" width="54.169" height="24.25"/>
<rect x="266.951" y="231.193" transform="matrix(-0.7071 0.7071 -0.7071 -0.7071 649.4686 220.4576)" style="fill:#171719;" width="24.25" height="27.09"/>
<path style="fill:#FFEC97;" d="M395.38,197.486l-88.215-88.215l28.359-28.359c10.168-10.168,27.09-8.515,35.099,3.427l44.906,66.96
	c6.074,9.057,4.893,21.144-2.817,28.855L395.38,197.486z"/>
<path style="fill:#FEC000;" d="M412.713,180.157l-17.331,17.331l-44.109-44.109l39.301-39.301l24.961,37.222
	C421.601,160.351,420.427,172.442,412.713,180.157z"/>
<path style="fill:#54FBFF;" d="M307.826,108.611L106.168,310.268l88.215,88.215L396.04,196.826L307.826,108.611z M193.205,349.752
	l-38.306-38.306L304.16,162.185l38.306,38.306L193.205,349.752z"/>
<path style="fill:#00B7BE;" d="M351.93,152.721l-28.617,28.617l19.156,19.155L193.206,349.757l-19.156-19.155l-23.773,23.773
	l44.109,44.109l201.653-201.653L351.93,152.721z"/>
<rect x="203.222" y="234.076" transform="matrix(-0.7071 -0.7071 0.7071 -0.7071 233.7966 616.364)" style="fill:#57555C;" width="82.659" height="51.37"/>
<rect x="233.565" y="253.912" transform="matrix(-0.7071 0.7071 -0.7071 -0.7071 636.6407 285.2177)" style="fill:#2A2A2C;" width="51.369" height="41.1"/>
<g>
</g>
<g>
</g>
<g>
</g>
<g>
</g>
<g>
</g>
<g>
</g>
<g>
</g>
<g>
</g>
<g>
</g>
<g>
</g>
<g>
</g>
<g>
</g>
<g>
</g>
<g>
</g>
<g>
</g>
</svg>
